<svg xmlns="http://www.w3.org/2000/svg" width="96" height="80" viewBox="0 0 96 80"><defs><filter id="ms" x="-30%" y="-30%" width="160%" height="160%"><feGaussianBlur stdDeviation="3.5"/></filter><filter id="mg" x="-50%" y="-50%" width="200%" height="200%"><feGaussianBlur stdDeviation="2.5"/></filter><linearGradient id="pm" x1="0" y1="0" x2="1" y2="1"><stop offset="0" stop-color="#27ae60" stop-opacity="1"/><stop offset="1" stop-color="#10502b" stop-opacity="1"/></linearGradient></defs><rect x="14" y="16" width="76" height="60" rx="5" fill="#000" opacity=".55" filter="url(#ms)"/><rect x="8" y="8" width="76" height="60" rx="5" fill="url(#pm)" stroke="#0e0e0e" stroke-width="2.5"/><rect x="8" y="8" width="76" height="6" rx="3" fill="#ffffff" opacity=".18"/><rect x="14" y="52" width="64" height="12" rx="2" fill="#141414"/><rect x="18" y="55" width="38" height="6" rx="1" fill="#27ae60" opacity=".85" filter="url(#mg)"/><circle cx="68" cy="58" r="3" fill="#f4efe2" opacity=".8"/><circle cx="46" cy="31" r="17" fill="#0e0e0e" opacity=".55"/><g transform="translate(29 14) scale(0.53)"><path d="M24 16 L34 16 L34 32 L46 38 Q48 40 46 44 L20 44 Q18 44 18 41 L22 34 Z" fill="#f4efe2"/><path d="M28 22 L32 22" stroke="#0000" stroke-width="0" stroke-linecap="round" fill="none" /></g></svg>
