<svg xmlns="http://www.w3.org/2000/svg" width="896" height="128" viewBox="0 0 896 128"><defs><radialGradient id="pjk" cx="35%" cy="30%" r="75%"><stop offset="0" stop-color="#6a7254" stop-opacity="1"/><stop offset="0.55" stop-color="#4b5140" stop-opacity="1"/><stop offset="1" stop-color="#30341f" stop-opacity="1"/></radialGradient><radialGradient id="ppk" cx="35%" cy="30%" r="75%"><stop offset="0" stop-color="#7a5f42" stop-opacity="1"/><stop offset="0.6" stop-color="#5d4731" stop-opacity="1"/><stop offset="1" stop-color="#3c2d1d" stop-opacity="1"/></radialGradient><radialGradient id="phr" cx="60%" cy="35%" r="75%"><stop offset="0" stop-color="#54402d" stop-opacity="1"/><stop offset="0.7" stop-color="#35271b" stop-opacity="1"/><stop offset="1" stop-color="#1f160f" stop-opacity="1"/></radialGradient><radialGradient id="psk" cx="70%" cy="40%" r="75%"><stop offset="0" stop-color="#dcb799" stop-opacity="1"/><stop offset="1" stop-color="#a47e60" stop-opacity="1"/></radialGradient></defs><g transform="translate(0 0)"><rect x="31" y="51" width="7" height="26" rx="3.5" fill="#3d4632" stroke="#1d2218" stroke-width="1"/><path d="M32 58 L37 58" stroke="#262c1f" stroke-width="1.4" stroke-linecap="round" fill="none" /><path d="M32 70 L37 70" stroke="#262c1f" stroke-width="1.4" stroke-linecap="round" fill="none" /><rect x="36" y="47" width="19" height="34" rx="5.5" fill="url(#ppk)" stroke="#20170e" stroke-width="1.3"/><rect x="38.5" y="51" width="9" height="26" rx="3" fill="#3c2d1d" opacity=".55"/><path d="M40 64 L46 64" stroke="#1c140c" stroke-width="1.2" stroke-linecap="round" fill="none" opacity=".7"/><ellipse cx="61" cy="64" rx="15.5" ry="25" fill="url(#pjk)" stroke="#1b1e14" stroke-width="1.5"/><path d="M66 44 Q72 64 66 84" stroke="#30341f" stroke-width="1.4" fill="none" opacity=".6"/><path d="M47 50 Q57 45.5 70 49" stroke="#2a2016" stroke-width="3.4" fill="none" stroke-linecap="round"/><path d="M47 78 Q57 82.5 70 79" stroke="#2a2016" stroke-width="3.4" fill="none" stroke-linecap="round"/><path d="M53.5 54 Q49 64 53.5 74" stroke="#30341f" stroke-width="5" fill="none" stroke-linecap="round"/><path d="M61 45 L78.59 52.18" stroke="#1b1e14" stroke-width="11.5" stroke-linecap="round" fill="none" /><path d="M61 45 L78.59 52.18" stroke="#4b5140" stroke-width="9" stroke-linecap="round" fill="none" /><path d="M78.59 52.18 L93.79 65.18" stroke="#1b1e14" stroke-width="10" stroke-linecap="round" fill="none" /><path d="M78.59 52.18 L93.79 65.18" stroke="#4b5140" stroke-width="7.8" stroke-linecap="round" fill="none" /><path d="M84.67 57.38 L78.59 52.18" stroke="#6a7254" stroke-width="2.2" stroke-linecap="round" fill="none" opacity=".35"/><path d="M61 83 L76.48 94.01" stroke="#1b1e14" stroke-width="11.5" stroke-linecap="round" fill="none" /><path d="M61 83 L76.48 94.01" stroke="#4b5140" stroke-width="9" stroke-linecap="round" fill="none" /><path d="M76.48 94.01 L79.08 74.18" stroke="#1b1e14" stroke-width="10" stroke-linecap="round" fill="none" /><path d="M76.48 94.01 L79.08 74.18" stroke="#4b5140" stroke-width="7.8" stroke-linecap="round" fill="none" /><path d="M77.52 86.08 L76.48 94.01" stroke="#6a7254" stroke-width="2.2" stroke-linecap="round" fill="none" opacity=".35"/><g transform="translate(70 72) rotate(-2)"><path d="M0 -3.25 L-16 -4.25 Q-18 0 -16 4.25 L0 3.25 Z" fill="#23252a" stroke="#0b0b0b" stroke-width="0.8"/><rect x="0" y="-3.75" width="20" height="7.5" rx="1.2" fill="#19191b" stroke="#0b0b0b" stroke-width="0.8"/><rect x="1" y="-3.75" width="18" height="1.8" fill="#45474c" opacity=".7"/><rect x="20" y="-3.15" width="18" height="6.3" rx="1.5" fill="#23252a" stroke="#0b0b0b" stroke-width="0.8"/><rect x="38" y="-1.5" width="14" height="3" fill="#19191b"/><rect x="50" y="-2" width="3" height="4" fill="#050505"/><rect x="7" y="-1.3" width="7" height="2.6" rx="0.8" fill="#0d0d0e"/></g><circle cx="93.79" cy="65.18" r="5" fill="#232323" stroke="#0e0e0e" stroke-width="1"/><circle cx="79.08" cy="74.18" r="5.2" fill="#232323" stroke="#0e0e0e" stroke-width="1"/><ellipse cx="62" cy="52.6" rx="2.6" ry="2" fill="#a47e60"/><ellipse cx="62" cy="75.4" rx="2.6" ry="2" fill="#a47e60"/><circle cx="63.5" cy="64" r="11.6" fill="url(#psk)" stroke="#2b1f16" stroke-width="1.2"/><path d="M71 56.5 Q64 64 71 71.5 L60 76.5 Q50 64 60 51.5 Z" fill="url(#phr)"/><circle cx="61" cy="64" r="10.6" fill="url(#phr)"/><path d="M54 59 L60 60.5 L66 59" stroke="#20170f" stroke-width="1" stroke-linecap="round" stroke-linejoin="round" fill="none" opacity=".6"/><path d="M54 69 L60 67.5 L66 69" stroke="#20170f" stroke-width="1" stroke-linecap="round" stroke-linejoin="round" fill="none" opacity=".6"/><path d="M53 64 L62 64.5" stroke="#6b523b" stroke-width="1" stroke-linecap="round" stroke-linejoin="round" fill="none" opacity=".5"/></g><g transform="translate(128 0)"><rect x="31" y="51" width="7" height="26" rx="3.5" fill="#3d4632" stroke="#1d2218" stroke-width="1"/><path d="M32 58 L37 58" stroke="#262c1f" stroke-width="1.4" stroke-linecap="round" fill="none" /><path d="M32 70 L37 70" stroke="#262c1f" stroke-width="1.4" stroke-linecap="round" fill="none" /><rect x="36" y="47" width="19" height="34" rx="5.5" fill="url(#ppk)" stroke="#20170e" stroke-width="1.3"/><rect x="38.5" y="51" width="9" height="26" rx="3" fill="#3c2d1d" opacity=".55"/><path d="M40 64 L46 64" stroke="#1c140c" stroke-width="1.2" stroke-linecap="round" fill="none" opacity=".7"/><ellipse cx="61" cy="64" rx="15.5" ry="25" fill="url(#pjk)" stroke="#1b1e14" stroke-width="1.5"/><path d="M66 44 Q72 64 66 84" stroke="#30341f" stroke-width="1.4" fill="none" opacity=".6"/><path d="M47 50 Q57 45.5 70 49" stroke="#2a2016" stroke-width="3.4" fill="none" stroke-linecap="round"/><path d="M47 78 Q57 82.5 70 79" stroke="#2a2016" stroke-width="3.4" fill="none" stroke-linecap="round"/><path d="M53.5 54 Q49 64 53.5 74" stroke="#30341f" stroke-width="5" fill="none" stroke-linecap="round"/><path d="M61 45 L78.51 52.38" stroke="#1b1e14" stroke-width="11.5" stroke-linecap="round" fill="none" /><path d="M61 45 L78.51 52.38" stroke="#4b5140" stroke-width="9" stroke-linecap="round" fill="none" /><path d="M78.51 52.38 L93.55 65.56" stroke="#1b1e14" stroke-width="10" stroke-linecap="round" fill="none" /><path d="M78.51 52.38 L93.55 65.56" stroke="#4b5140" stroke-width="7.8" stroke-linecap="round" fill="none" /><path d="M84.52 57.65 L78.51 52.38" stroke="#6a7254" stroke-width="2.2" stroke-linecap="round" fill="none" opacity=".35"/><path d="M61 83 L76.85 93.48" stroke="#1b1e14" stroke-width="11.5" stroke-linecap="round" fill="none" /><path d="M61 83 L76.85 93.48" stroke="#4b5140" stroke-width="9" stroke-linecap="round" fill="none" /><path d="M76.85 93.48 L75.21 73.55" stroke="#1b1e14" stroke-width="10" stroke-linecap="round" fill="none" /><path d="M76.85 93.48 L75.21 73.55" stroke="#4b5140" stroke-width="7.8" stroke-linecap="round" fill="none" /><path d="M76.19 85.51 L76.85 93.48" stroke="#6a7254" stroke-width="2.2" stroke-linecap="round" fill="none" opacity=".35"/><g transform="translate(66 72) rotate(-6)"><path d="M0 -3.25 L-16 -4.25 Q-18 0 -16 4.25 L0 3.25 Z" fill="#23252a" stroke="#0b0b0b" stroke-width="0.8"/><rect x="0" y="-3.75" width="20" height="7.5" rx="1.2" fill="#19191b" stroke="#0b0b0b" stroke-width="0.8"/><rect x="1" y="-3.75" width="18" height="1.8" fill="#45474c" opacity=".7"/><rect x="20" y="-3.15" width="18" height="6.3" rx="1.5" fill="#23252a" stroke="#0b0b0b" stroke-width="0.8"/><rect x="38" y="-1.5" width="14" height="3" fill="#19191b"/><rect x="50" y="-2" width="3" height="4" fill="#050505"/><rect x="7" y="-1.3" width="7" height="2.6" rx="0.8" fill="#0d0d0e"/></g><circle cx="93.55" cy="65.56" r="5" fill="#232323" stroke="#0e0e0e" stroke-width="1"/><circle cx="75.21" cy="73.55" r="5.2" fill="#232323" stroke="#0e0e0e" stroke-width="1"/><ellipse cx="62" cy="52.6" rx="2.6" ry="2" fill="#a47e60"/><ellipse cx="62" cy="75.4" rx="2.6" ry="2" fill="#a47e60"/><circle cx="63.5" cy="64" r="11.6" fill="url(#psk)" stroke="#2b1f16" stroke-width="1.2"/><path d="M71 56.5 Q64 64 71 71.5 L60 76.5 Q50 64 60 51.5 Z" fill="url(#phr)"/><circle cx="61" cy="64" r="10.6" fill="url(#phr)"/><path d="M54 59 L60 60.5 L66 59" stroke="#20170f" stroke-width="1" stroke-linecap="round" stroke-linejoin="round" fill="none" opacity=".6"/><path d="M54 69 L60 67.5 L66 69" stroke="#20170f" stroke-width="1" stroke-linecap="round" stroke-linejoin="round" fill="none" opacity=".6"/><path d="M53 64 L62 64.5" stroke="#6b523b" stroke-width="1" stroke-linecap="round" stroke-linejoin="round" fill="none" opacity=".5"/></g><g transform="translate(256 0)"><rect x="31" y="51" width="7" height="26" rx="3.5" fill="#3d4632" stroke="#1d2218" stroke-width="1"/><path d="M32 58 L37 58" stroke="#262c1f" stroke-width="1.4" stroke-linecap="round" fill="none" /><path d="M32 70 L37 70" stroke="#262c1f" stroke-width="1.4" stroke-linecap="round" fill="none" /><rect x="36" y="47" width="19" height="34" rx="5.5" fill="url(#ppk)" stroke="#20170e" stroke-width="1.3"/><rect x="38.5" y="51" width="9" height="26" rx="3" fill="#3c2d1d" opacity=".55"/><path d="M40 64 L46 64" stroke="#1c140c" stroke-width="1.2" stroke-linecap="round" fill="none" opacity=".7"/><ellipse cx="61" cy="64" rx="15.5" ry="25" fill="url(#pjk)" stroke="#1b1e14" stroke-width="1.5"/><path d="M66 44 Q72 64 66 84" stroke="#30341f" stroke-width="1.4" fill="none" opacity=".6"/><path d="M47 50 Q57 45.5 70 49" stroke="#2a2016" stroke-width="3.4" fill="none" stroke-linecap="round"/><path d="M47 78 Q57 82.5 70 79" stroke="#2a2016" stroke-width="3.4" fill="none" stroke-linecap="round"/><path d="M53.5 54 Q49 64 53.5 74" stroke="#30341f" stroke-width="5" fill="none" stroke-linecap="round"/><path d="M61 45 L72.63 60.03" stroke="#1b1e14" stroke-width="11.5" stroke-linecap="round" fill="none" /><path d="M61 45 L72.63 60.03" stroke="#4b5140" stroke-width="9" stroke-linecap="round" fill="none" /><path d="M72.63 60.03 L79.25 78.9" stroke="#1b1e14" stroke-width="10" stroke-linecap="round" fill="none" /><path d="M72.63 60.03 L79.25 78.9" stroke="#4b5140" stroke-width="7.8" stroke-linecap="round" fill="none" /><path d="M75.28 67.58 L72.63 60.03" stroke="#6a7254" stroke-width="2.2" stroke-linecap="round" fill="none" opacity=".35"/><path d="M61 83 L73.2 97.57" stroke="#1b1e14" stroke-width="11.5" stroke-linecap="round" fill="none" /><path d="M61 83 L73.2 97.57" stroke="#4b5140" stroke-width="9" stroke-linecap="round" fill="none" /><path d="M73.2 97.57 L75.41 77.69" stroke="#1b1e14" stroke-width="10" stroke-linecap="round" fill="none" /><path d="M73.2 97.57 L75.41 77.69" stroke="#4b5140" stroke-width="7.8" stroke-linecap="round" fill="none" /><path d="M74.08 89.62 L73.2 97.57" stroke="#6a7254" stroke-width="2.2" stroke-linecap="round" fill="none" opacity=".35"/><g transform="translate(68 72) rotate(22)"><path d="M0 -3.25 L-16 -4.25 Q-18 0 -16 4.25 L0 3.25 Z" fill="#23252a" stroke="#0b0b0b" stroke-width="0.8"/><rect x="0" y="-3.75" width="20" height="7.5" rx="1.2" fill="#19191b" stroke="#0b0b0b" stroke-width="0.8"/><rect x="1" y="-3.75" width="18" height="1.8" fill="#45474c" opacity=".7"/><rect x="20" y="-3.15" width="18" height="6.3" rx="1.5" fill="#23252a" stroke="#0b0b0b" stroke-width="0.8"/><rect x="38" y="-1.5" width="14" height="3" fill="#19191b"/><rect x="50" y="-2" width="3" height="4" fill="#050505"/><rect x="7" y="-1.3" width="7" height="2.6" rx="0.8" fill="#0d0d0e"/></g><circle cx="79.25" cy="78.9" r="5" fill="#232323" stroke="#0e0e0e" stroke-width="1"/><circle cx="75.41" cy="77.69" r="5.2" fill="#232323" stroke="#0e0e0e" stroke-width="1"/><ellipse cx="62" cy="52.6" rx="2.6" ry="2" fill="#a47e60"/><ellipse cx="62" cy="75.4" rx="2.6" ry="2" fill="#a47e60"/><circle cx="63.5" cy="64" r="11.6" fill="url(#psk)" stroke="#2b1f16" stroke-width="1.2"/><path d="M71 56.5 Q64 64 71 71.5 L60 76.5 Q50 64 60 51.5 Z" fill="url(#phr)"/><circle cx="61" cy="64" r="10.6" fill="url(#phr)"/><path d="M54 59 L60 60.5 L66 59" stroke="#20170f" stroke-width="1" stroke-linecap="round" stroke-linejoin="round" fill="none" opacity=".6"/><path d="M54 69 L60 67.5 L66 69" stroke="#20170f" stroke-width="1" stroke-linecap="round" stroke-linejoin="round" fill="none" opacity=".6"/><path d="M53 64 L62 64.5" stroke="#6b523b" stroke-width="1" stroke-linecap="round" stroke-linejoin="round" fill="none" opacity=".5"/></g><g transform="translate(384 0)"><rect x="31" y="51" width="7" height="26" rx="3.5" fill="#3d4632" stroke="#1d2218" stroke-width="1"/><path d="M32 58 L37 58" stroke="#262c1f" stroke-width="1.4" stroke-linecap="round" fill="none" /><path d="M32 70 L37 70" stroke="#262c1f" stroke-width="1.4" stroke-linecap="round" fill="none" /><rect x="36" y="47" width="19" height="34" rx="5.5" fill="url(#ppk)" stroke="#20170e" stroke-width="1.3"/><rect x="38.5" y="51" width="9" height="26" rx="3" fill="#3c2d1d" opacity=".55"/><path d="M40 64 L46 64" stroke="#1c140c" stroke-width="1.2" stroke-linecap="round" fill="none" opacity=".7"/><ellipse cx="61" cy="64" rx="15.5" ry="25" fill="url(#pjk)" stroke="#1b1e14" stroke-width="1.5"/><path d="M66 44 Q72 64 66 84" stroke="#30341f" stroke-width="1.4" fill="none" opacity=".6"/><path d="M47 50 Q57 45.5 70 49" stroke="#2a2016" stroke-width="3.4" fill="none" stroke-linecap="round"/><path d="M47 78 Q57 82.5 70 79" stroke="#2a2016" stroke-width="3.4" fill="none" stroke-linecap="round"/><path d="M53.5 54 Q49 64 53.5 74" stroke="#30341f" stroke-width="5" fill="none" stroke-linecap="round"/><path d="M61 45 L66.78 63.1" stroke="#1b1e14" stroke-width="11.5" stroke-linecap="round" fill="none" /><path d="M61 45 L66.78 63.1" stroke="#4b5140" stroke-width="9" stroke-linecap="round" fill="none" /><path d="M66.78 63.1 L66.56 83.1" stroke="#1b1e14" stroke-width="10" stroke-linecap="round" fill="none" /><path d="M66.78 63.1 L66.56 83.1" stroke="#4b5140" stroke-width="7.8" stroke-linecap="round" fill="none" /><path d="M66.69 71.1 L66.78 63.1" stroke="#6a7254" stroke-width="2.2" stroke-linecap="round" fill="none" opacity=".35"/><path d="M61 83 L73.2 97.57" stroke="#1b1e14" stroke-width="11.5" stroke-linecap="round" fill="none" /><path d="M61 83 L73.2 97.57" stroke="#4b5140" stroke-width="9" stroke-linecap="round" fill="none" /><path d="M73.2 97.57 L75.41 77.69" stroke="#1b1e14" stroke-width="10" stroke-linecap="round" fill="none" /><path d="M73.2 97.57 L75.41 77.69" stroke="#4b5140" stroke-width="7.8" stroke-linecap="round" fill="none" /><path d="M74.08 89.62 L73.2 97.57" stroke="#6a7254" stroke-width="2.2" stroke-linecap="round" fill="none" opacity=".35"/><g transform="translate(68 72) rotate(22)"><path d="M0 -3.25 L-16 -4.25 Q-18 0 -16 4.25 L0 3.25 Z" fill="#23252a" stroke="#0b0b0b" stroke-width="0.8"/><rect x="0" y="-3.75" width="20" height="7.5" rx="1.2" fill="#19191b" stroke="#0b0b0b" stroke-width="0.8"/><rect x="1" y="-3.75" width="18" height="1.8" fill="#45474c" opacity=".7"/><rect x="20" y="-3.15" width="18" height="6.3" rx="1.5" fill="#23252a" stroke="#0b0b0b" stroke-width="0.8"/><rect x="38" y="-1.5" width="14" height="3" fill="#19191b"/><rect x="50" y="-2" width="3" height="4" fill="#050505"/><rect x="7" y="-1.3" width="7" height="2.6" rx="0.8" fill="#0d0d0e"/></g><rect x="64.06" y="77.1" width="5" height="11" rx="1" fill="#111" transform="rotate(20 66.56 83.1)"/><circle cx="66.56" cy="83.1" r="5" fill="#232323" stroke="#0e0e0e" stroke-width="1"/><circle cx="75.41" cy="77.69" r="5.2" fill="#232323" stroke="#0e0e0e" stroke-width="1"/><ellipse cx="62" cy="52.6" rx="2.6" ry="2" fill="#a47e60"/><ellipse cx="62" cy="75.4" rx="2.6" ry="2" fill="#a47e60"/><circle cx="63.5" cy="64" r="11.6" fill="url(#psk)" stroke="#2b1f16" stroke-width="1.2"/><path d="M71 56.5 Q64 64 71 71.5 L60 76.5 Q50 64 60 51.5 Z" fill="url(#phr)"/><circle cx="61" cy="64" r="10.6" fill="url(#phr)"/><path d="M54 59 L60 60.5 L66 59" stroke="#20170f" stroke-width="1" stroke-linecap="round" stroke-linejoin="round" fill="none" opacity=".6"/><path d="M54 69 L60 67.5 L66 69" stroke="#20170f" stroke-width="1" stroke-linecap="round" stroke-linejoin="round" fill="none" opacity=".6"/><path d="M53 64 L62 64.5" stroke="#6b523b" stroke-width="1" stroke-linecap="round" stroke-linejoin="round" fill="none" opacity=".5"/></g><g transform="translate(512 0)"><rect x="31" y="51" width="7" height="26" rx="3.5" fill="#3d4632" stroke="#1d2218" stroke-width="1"/><path d="M32 58 L37 58" stroke="#262c1f" stroke-width="1.4" stroke-linecap="round" fill="none" /><path d="M32 70 L37 70" stroke="#262c1f" stroke-width="1.4" stroke-linecap="round" fill="none" /><rect x="36" y="47" width="19" height="34" rx="5.5" fill="url(#ppk)" stroke="#20170e" stroke-width="1.3"/><rect x="38.5" y="51" width="9" height="26" rx="3" fill="#3c2d1d" opacity=".55"/><path d="M40 64 L46 64" stroke="#1c140c" stroke-width="1.2" stroke-linecap="round" fill="none" opacity=".7"/><ellipse cx="61" cy="64" rx="15.5" ry="25" fill="url(#pjk)" stroke="#1b1e14" stroke-width="1.5"/><path d="M66 44 Q72 64 66 84" stroke="#30341f" stroke-width="1.4" fill="none" opacity=".6"/><path d="M47 50 Q57 45.5 70 49" stroke="#2a2016" stroke-width="3.4" fill="none" stroke-linecap="round"/><path d="M47 78 Q57 82.5 70 79" stroke="#2a2016" stroke-width="3.4" fill="none" stroke-linecap="round"/><path d="M53.5 54 Q49 64 53.5 74" stroke="#30341f" stroke-width="5" fill="none" stroke-linecap="round"/><path d="M61 45 L71.05 61.12" stroke="#1b1e14" stroke-width="11.5" stroke-linecap="round" fill="none" /><path d="M61 45 L71.05 61.12" stroke="#4b5140" stroke-width="9" stroke-linecap="round" fill="none" /><path d="M71.05 61.12 L75.75 80.56" stroke="#1b1e14" stroke-width="10" stroke-linecap="round" fill="none" /><path d="M71.05 61.12 L75.75 80.56" stroke="#4b5140" stroke-width="7.8" stroke-linecap="round" fill="none" /><path d="M72.93 68.9 L71.05 61.12" stroke="#6a7254" stroke-width="2.2" stroke-linecap="round" fill="none" opacity=".35"/><path d="M61 83 L73.2 97.57" stroke="#1b1e14" stroke-width="11.5" stroke-linecap="round" fill="none" /><path d="M61 83 L73.2 97.57" stroke="#4b5140" stroke-width="9" stroke-linecap="round" fill="none" /><path d="M73.2 97.57 L75.41 77.69" stroke="#1b1e14" stroke-width="10" stroke-linecap="round" fill="none" /><path d="M73.2 97.57 L75.41 77.69" stroke="#4b5140" stroke-width="7.8" stroke-linecap="round" fill="none" /><path d="M74.08 89.62 L73.2 97.57" stroke="#6a7254" stroke-width="2.2" stroke-linecap="round" fill="none" opacity=".35"/><g transform="translate(68 72) rotate(22)"><path d="M0 -3.25 L-16 -4.25 Q-18 0 -16 4.25 L0 3.25 Z" fill="#23252a" stroke="#0b0b0b" stroke-width="0.8"/><rect x="0" y="-3.75" width="20" height="7.5" rx="1.2" fill="#19191b" stroke="#0b0b0b" stroke-width="0.8"/><rect x="1" y="-3.75" width="18" height="1.8" fill="#45474c" opacity=".7"/><rect x="20" y="-3.15" width="18" height="6.3" rx="1.5" fill="#23252a" stroke="#0b0b0b" stroke-width="0.8"/><rect x="38" y="-1.5" width="14" height="3" fill="#19191b"/><rect x="50" y="-2" width="3" height="4" fill="#050505"/><rect x="7" y="-1.3" width="7" height="2.6" rx="0.8" fill="#0d0d0e"/></g><rect x="73.25" y="74.56" width="5" height="11" rx="1" fill="#111" transform="rotate(20 75.75 80.56)"/><circle cx="75.75" cy="80.56" r="5" fill="#232323" stroke="#0e0e0e" stroke-width="1"/><circle cx="75.41" cy="77.69" r="5.2" fill="#232323" stroke="#0e0e0e" stroke-width="1"/><ellipse cx="62" cy="52.6" rx="2.6" ry="2" fill="#a47e60"/><ellipse cx="62" cy="75.4" rx="2.6" ry="2" fill="#a47e60"/><circle cx="63.5" cy="64" r="11.6" fill="url(#psk)" stroke="#2b1f16" stroke-width="1.2"/><path d="M71 56.5 Q64 64 71 71.5 L60 76.5 Q50 64 60 51.5 Z" fill="url(#phr)"/><circle cx="61" cy="64" r="10.6" fill="url(#phr)"/><path d="M54 59 L60 60.5 L66 59" stroke="#20170f" stroke-width="1" stroke-linecap="round" stroke-linejoin="round" fill="none" opacity=".6"/><path d="M54 69 L60 67.5 L66 69" stroke="#20170f" stroke-width="1" stroke-linecap="round" stroke-linejoin="round" fill="none" opacity=".6"/><path d="M53 64 L62 64.5" stroke="#6b523b" stroke-width="1" stroke-linecap="round" stroke-linejoin="round" fill="none" opacity=".5"/></g><g transform="translate(640 0)"><rect x="31" y="51" width="7" height="26" rx="3.5" fill="#3d4632" stroke="#1d2218" stroke-width="1"/><path d="M32 58 L37 58" stroke="#262c1f" stroke-width="1.4" stroke-linecap="round" fill="none" /><path d="M32 70 L37 70" stroke="#262c1f" stroke-width="1.4" stroke-linecap="round" fill="none" /><rect x="36" y="47" width="19" height="34" rx="5.5" fill="url(#ppk)" stroke="#20170e" stroke-width="1.3"/><rect x="38.5" y="51" width="9" height="26" rx="3" fill="#3c2d1d" opacity=".55"/><path d="M40 64 L46 64" stroke="#1c140c" stroke-width="1.2" stroke-linecap="round" fill="none" opacity=".7"/><ellipse cx="61" cy="64" rx="15.5" ry="25" fill="url(#pjk)" stroke="#1b1e14" stroke-width="1.5"/><path d="M66 44 Q72 64 66 84" stroke="#30341f" stroke-width="1.4" fill="none" opacity=".6"/><path d="M47 50 Q57 45.5 70 49" stroke="#2a2016" stroke-width="3.4" fill="none" stroke-linecap="round"/><path d="M47 78 Q57 82.5 70 79" stroke="#2a2016" stroke-width="3.4" fill="none" stroke-linecap="round"/><path d="M53.5 54 Q49 64 53.5 74" stroke="#30341f" stroke-width="5" fill="none" stroke-linecap="round"/><path d="M61 45 L73.61 59.21" stroke="#1b1e14" stroke-width="11.5" stroke-linecap="round" fill="none" /><path d="M61 45 L73.61 59.21" stroke="#4b5140" stroke-width="9" stroke-linecap="round" fill="none" /><path d="M73.61 59.21 L81.49 77.6" stroke="#1b1e14" stroke-width="10" stroke-linecap="round" fill="none" /><path d="M73.61 59.21 L81.49 77.6" stroke="#4b5140" stroke-width="7.8" stroke-linecap="round" fill="none" /><path d="M76.76 66.57 L73.61 59.21" stroke="#6a7254" stroke-width="2.2" stroke-linecap="round" fill="none" opacity=".35"/><path d="M61 83 L73.2 97.57" stroke="#1b1e14" stroke-width="11.5" stroke-linecap="round" fill="none" /><path d="M61 83 L73.2 97.57" stroke="#4b5140" stroke-width="9" stroke-linecap="round" fill="none" /><path d="M73.2 97.57 L75.41 77.69" stroke="#1b1e14" stroke-width="10" stroke-linecap="round" fill="none" /><path d="M73.2 97.57 L75.41 77.69" stroke="#4b5140" stroke-width="7.8" stroke-linecap="round" fill="none" /><path d="M74.08 89.62 L73.2 97.57" stroke="#6a7254" stroke-width="2.2" stroke-linecap="round" fill="none" opacity=".35"/><g transform="translate(68 72) rotate(22)"><path d="M0 -3.25 L-16 -4.25 Q-18 0 -16 4.25 L0 3.25 Z" fill="#23252a" stroke="#0b0b0b" stroke-width="0.8"/><rect x="0" y="-3.75" width="20" height="7.5" rx="1.2" fill="#19191b" stroke="#0b0b0b" stroke-width="0.8"/><rect x="1" y="-3.75" width="18" height="1.8" fill="#45474c" opacity=".7"/><rect x="20" y="-3.15" width="18" height="6.3" rx="1.5" fill="#23252a" stroke="#0b0b0b" stroke-width="0.8"/><rect x="38" y="-1.5" width="14" height="3" fill="#19191b"/><rect x="50" y="-2" width="3" height="4" fill="#050505"/><rect x="7" y="-1.3" width="7" height="2.6" rx="0.8" fill="#0d0d0e"/></g><rect x="78.99" y="71.6" width="5" height="11" rx="1" fill="#111" transform="rotate(20 81.49 77.6)"/><circle cx="81.49" cy="77.6" r="5" fill="#232323" stroke="#0e0e0e" stroke-width="1"/><circle cx="75.41" cy="77.69" r="5.2" fill="#232323" stroke="#0e0e0e" stroke-width="1"/><ellipse cx="62" cy="52.6" rx="2.6" ry="2" fill="#a47e60"/><ellipse cx="62" cy="75.4" rx="2.6" ry="2" fill="#a47e60"/><circle cx="63.5" cy="64" r="11.6" fill="url(#psk)" stroke="#2b1f16" stroke-width="1.2"/><path d="M71 56.5 Q64 64 71 71.5 L60 76.5 Q50 64 60 51.5 Z" fill="url(#phr)"/><circle cx="61" cy="64" r="10.6" fill="url(#phr)"/><path d="M54 59 L60 60.5 L66 59" stroke="#20170f" stroke-width="1" stroke-linecap="round" stroke-linejoin="round" fill="none" opacity=".6"/><path d="M54 69 L60 67.5 L66 69" stroke="#20170f" stroke-width="1" stroke-linecap="round" stroke-linejoin="round" fill="none" opacity=".6"/><path d="M53 64 L62 64.5" stroke="#6b523b" stroke-width="1" stroke-linecap="round" stroke-linejoin="round" fill="none" opacity=".5"/></g><g transform="translate(768 0)"><rect x="31" y="51" width="7" height="26" rx="3.5" fill="#3d4632" stroke="#1d2218" stroke-width="1"/><path d="M32 58 L37 58" stroke="#262c1f" stroke-width="1.4" stroke-linecap="round" fill="none" /><path d="M32 70 L37 70" stroke="#262c1f" stroke-width="1.4" stroke-linecap="round" fill="none" /><rect x="36" y="47" width="19" height="34" rx="5.5" fill="url(#ppk)" stroke="#20170e" stroke-width="1.3"/><rect x="38.5" y="51" width="9" height="26" rx="3" fill="#3c2d1d" opacity=".55"/><path d="M40 64 L46 64" stroke="#1c140c" stroke-width="1.2" stroke-linecap="round" fill="none" opacity=".7"/><ellipse cx="61" cy="64" rx="15.5" ry="25" fill="url(#pjk)" stroke="#1b1e14" stroke-width="1.5"/><path d="M66 44 Q72 64 66 84" stroke="#30341f" stroke-width="1.4" fill="none" opacity=".6"/><path d="M47 50 Q57 45.5 70 49" stroke="#2a2016" stroke-width="3.4" fill="none" stroke-linecap="round"/><path d="M47 78 Q57 82.5 70 79" stroke="#2a2016" stroke-width="3.4" fill="none" stroke-linecap="round"/><path d="M53.5 54 Q49 64 53.5 74" stroke="#30341f" stroke-width="5" fill="none" stroke-linecap="round"/><path d="M61 45 L77.72 54.02" stroke="#1b1e14" stroke-width="11.5" stroke-linecap="round" fill="none" /><path d="M61 45 L77.72 54.02" stroke="#4b5140" stroke-width="9" stroke-linecap="round" fill="none" /><path d="M77.72 54.02 L91.44 68.58" stroke="#1b1e14" stroke-width="10" stroke-linecap="round" fill="none" /><path d="M77.72 54.02 L91.44 68.58" stroke="#4b5140" stroke-width="7.8" stroke-linecap="round" fill="none" /><path d="M83.21 59.84 L77.72 54.02" stroke="#6a7254" stroke-width="2.2" stroke-linecap="round" fill="none" opacity=".35"/><path d="M61 83 L75.81 94.9" stroke="#1b1e14" stroke-width="11.5" stroke-linecap="round" fill="none" /><path d="M61 83 L75.81 94.9" stroke="#4b5140" stroke-width="9" stroke-linecap="round" fill="none" /><path d="M75.81 94.9 L78.8 75.12" stroke="#1b1e14" stroke-width="10" stroke-linecap="round" fill="none" /><path d="M75.81 94.9 L78.8 75.12" stroke="#4b5140" stroke-width="7.8" stroke-linecap="round" fill="none" /><path d="M77.01 86.99 L75.81 94.9" stroke="#6a7254" stroke-width="2.2" stroke-linecap="round" fill="none" opacity=".35"/><g transform="translate(70 72) rotate(4)"><path d="M0 -3.25 L-16 -4.25 Q-18 0 -16 4.25 L0 3.25 Z" fill="#23252a" stroke="#0b0b0b" stroke-width="0.8"/><rect x="0" y="-3.75" width="20" height="7.5" rx="1.2" fill="#19191b" stroke="#0b0b0b" stroke-width="0.8"/><rect x="1" y="-3.75" width="18" height="1.8" fill="#45474c" opacity=".7"/><rect x="20" y="-3.15" width="18" height="6.3" rx="1.5" fill="#23252a" stroke="#0b0b0b" stroke-width="0.8"/><rect x="38" y="-1.5" width="14" height="3" fill="#19191b"/><rect x="50" y="-2" width="3" height="4" fill="#050505"/><rect x="7" y="-1.3" width="7" height="2.6" rx="0.8" fill="#0d0d0e"/></g><circle cx="91.44" cy="68.58" r="5" fill="#232323" stroke="#0e0e0e" stroke-width="1"/><circle cx="78.8" cy="75.12" r="5.2" fill="#232323" stroke="#0e0e0e" stroke-width="1"/><ellipse cx="62" cy="52.6" rx="2.6" ry="2" fill="#a47e60"/><ellipse cx="62" cy="75.4" rx="2.6" ry="2" fill="#a47e60"/><circle cx="63.5" cy="64" r="11.6" fill="url(#psk)" stroke="#2b1f16" stroke-width="1.2"/><path d="M71 56.5 Q64 64 71 71.5 L60 76.5 Q50 64 60 51.5 Z" fill="url(#phr)"/><circle cx="61" cy="64" r="10.6" fill="url(#phr)"/><path d="M54 59 L60 60.5 L66 59" stroke="#20170f" stroke-width="1" stroke-linecap="round" stroke-linejoin="round" fill="none" opacity=".6"/><path d="M54 69 L60 67.5 L66 69" stroke="#20170f" stroke-width="1" stroke-linecap="round" stroke-linejoin="round" fill="none" opacity=".6"/><path d="M53 64 L62 64.5" stroke="#6b523b" stroke-width="1" stroke-linecap="round" stroke-linejoin="round" fill="none" opacity=".5"/></g></svg>
