<svg xmlns="http://www.w3.org/2000/svg" width="896" height="128" viewBox="0 0 896 128"><defs><radialGradient id="pjk" cx="35%" cy="30%" r="75%"><stop offset="0" stop-color="#8fc4bd" stop-opacity="1"/><stop offset="0.55" stop-color="#5f9c96" stop-opacity="1"/><stop offset="1" stop-color="#35625e" stop-opacity="1"/></radialGradient><radialGradient id="ppk" cx="35%" cy="30%" r="75%"><stop offset="0" stop-color="#e6e2d6" stop-opacity="1"/><stop offset="0.6" stop-color="#c9c4b6" stop-opacity="1"/><stop offset="1" stop-color="#8e897c" stop-opacity="1"/></radialGradient><radialGradient id="phr" cx="60%" cy="35%" r="75%"><stop offset="0" stop-color="#3a2e24" stop-opacity="1"/><stop offset="0.7" stop-color="#1c1612" stop-opacity="1"/><stop offset="1" stop-color="#1f160f" stop-opacity="1"/></radialGradient><radialGradient id="psk" cx="70%" cy="40%" r="75%"><stop offset="0" stop-color="#dcb799" stop-opacity="1"/><stop offset="1" stop-color="#a47e60" stop-opacity="1"/></radialGradient></defs><g transform="translate(0 0)"><rect x="31" y="51" width="7" height="26" rx="3.5" fill="#3d4632" stroke="#1d2218" stroke-width="1"/><path d="M32 58 L37 58" stroke="#262c1f" stroke-width="1.4" stroke-linecap="round" fill="none" /><path d="M32 70 L37 70" stroke="#262c1f" stroke-width="1.4" stroke-linecap="round" fill="none" /><rect x="36" y="47" width="19" height="34" rx="5.5" fill="url(#ppk)" stroke="#20170e" stroke-width="1.3"/><rect x="38.5" y="51" width="9" height="26" rx="3" fill="#8e897c" opacity=".55"/><path d="M40 64 L46 64" stroke="#1c140c" stroke-width="1.2" stroke-linecap="round" fill="none" opacity=".7"/><ellipse cx="61" cy="64" rx="15.5" ry="25" fill="url(#pjk)" stroke="#1a3533" stroke-width="1.5"/><path d="M66 44 Q72 64 66 84" stroke="#35625e" stroke-width="1.4" fill="none" opacity=".6"/><path d="M47 50 Q57 45.5 70 49" stroke="#2a2016" stroke-width="3.4" fill="none" stroke-linecap="round"/><path d="M47 78 Q57 82.5 70 79" stroke="#2a2016" stroke-width="3.4" fill="none" stroke-linecap="round"/><path d="M53.5 54 Q49 64 53.5 74" stroke="#35625e" stroke-width="5" fill="none" stroke-linecap="round"/><path d="M61 45 L78.19 53.08" stroke="#1a3533" stroke-width="11.5" stroke-linecap="round" fill="none" /><path d="M61 45 L78.19 53.08" stroke="#5f9c96" stroke-width="9" stroke-linecap="round" fill="none" /><path d="M78.19 53.08 L92.69 66.87" stroke="#1a3533" stroke-width="10" stroke-linecap="round" fill="none" /><path d="M78.19 53.08 L92.69 66.87" stroke="#5f9c96" stroke-width="7.8" stroke-linecap="round" fill="none" /><path d="M83.99 58.6 L78.19 53.08" stroke="#8fc4bd" stroke-width="2.2" stroke-linecap="round" fill="none" opacity=".35"/><path d="M61 83 L76.39 94.15" stroke="#1a3533" stroke-width="11.5" stroke-linecap="round" fill="none" /><path d="M61 83 L76.39 94.15" stroke="#5f9c96" stroke-width="9" stroke-linecap="round" fill="none" /><path d="M76.39 94.15 L78.08 74.22" stroke="#1a3533" stroke-width="10" stroke-linecap="round" fill="none" /><path d="M76.39 94.15 L78.08 74.22" stroke="#5f9c96" stroke-width="7.8" stroke-linecap="round" fill="none" /><path d="M77.06 86.18 L76.39 94.15" stroke="#8fc4bd" stroke-width="2.2" stroke-linecap="round" fill="none" opacity=".35"/><g transform="translate(70 72) rotate(-2)"><path d="M0 -3.5 L-14 -4.5 Q-16 0 -14 4.5 L0 3.5 Z" fill="#3b3f2e" stroke="#0b0b0b" stroke-width="0.8"/><rect x="0" y="-5" width="16" height="10" rx="2" fill="#2c3024" stroke="#0b0b0b" stroke-width="0.8"/><circle cx="9" cy="0" r="8" fill="#4a5038" stroke="#0b0b0b" stroke-width="1"/><circle cx="13.5" cy="0.0" r="1.6" fill="#1a1c14"/><circle cx="11.3" cy="3.9" r="1.6" fill="#1a1c14"/><circle cx="6.8" cy="3.9" r="1.6" fill="#1a1c14"/><circle cx="4.5" cy="0.0" r="1.6" fill="#1a1c14"/><circle cx="6.7" cy="-3.9" r="1.6" fill="#1a1c14"/><circle cx="11.3" cy="-3.9" r="1.6" fill="#1a1c14"/><rect x="16" y="-5.5" width="26" height="11" rx="3" fill="#353a2a" stroke="#0b0b0b" stroke-width="0.8"/><rect x="18" y="-5.5" width="22" height="2.2" fill="#6b7258" opacity=".7"/><circle cx="42" cy="0" r="4.2" fill="#0a0a0a"/></g><circle cx="92.69" cy="66.87" r="5" fill="#232323" stroke="#0e0e0e" stroke-width="1"/><circle cx="78.08" cy="74.22" r="5.2" fill="#232323" stroke="#0e0e0e" stroke-width="1"/><ellipse cx="62" cy="52.6" rx="2.6" ry="2" fill="#a47e60"/><ellipse cx="62" cy="75.4" rx="2.6" ry="2" fill="#a47e60"/><circle cx="63.5" cy="64" r="11.6" fill="url(#psk)" stroke="#2b1f16" stroke-width="1.2"/><path d="M71 56.5 Q64 64 71 71.5 L60 76.5 Q50 64 60 51.5 Z" fill="url(#phr)"/><circle cx="61" cy="64" r="10.6" fill="url(#phr)"/><path d="M54 59 L60 60.5 L66 59" stroke="#20170f" stroke-width="1" stroke-linecap="round" stroke-linejoin="round" fill="none" opacity=".6"/><path d="M54 69 L60 67.5 L66 69" stroke="#20170f" stroke-width="1" stroke-linecap="round" stroke-linejoin="round" fill="none" opacity=".6"/><path d="M53 64 L62 64.5" stroke="#6b523b" stroke-width="1" stroke-linecap="round" stroke-linejoin="round" fill="none" opacity=".5"/></g><g transform="translate(128 0)"><rect x="31" y="51" width="7" height="26" rx="3.5" fill="#3d4632" stroke="#1d2218" stroke-width="1"/><path d="M32 58 L37 58" stroke="#262c1f" stroke-width="1.4" stroke-linecap="round" fill="none" /><path d="M32 70 L37 70" stroke="#262c1f" stroke-width="1.4" stroke-linecap="round" fill="none" /><rect x="36" y="47" width="19" height="34" rx="5.5" fill="url(#ppk)" stroke="#20170e" stroke-width="1.3"/><rect x="38.5" y="51" width="9" height="26" rx="3" fill="#8e897c" opacity=".55"/><path d="M40 64 L46 64" stroke="#1c140c" stroke-width="1.2" stroke-linecap="round" fill="none" opacity=".7"/><ellipse cx="61" cy="64" rx="15.5" ry="25" fill="url(#pjk)" stroke="#1a3533" stroke-width="1.5"/><path d="M66 44 Q72 64 66 84" stroke="#35625e" stroke-width="1.4" fill="none" opacity=".6"/><path d="M47 50 Q57 45.5 70 49" stroke="#2a2016" stroke-width="3.4" fill="none" stroke-linecap="round"/><path d="M47 78 Q57 82.5 70 79" stroke="#2a2016" stroke-width="3.4" fill="none" stroke-linecap="round"/><path d="M53.5 54 Q49 64 53.5 74" stroke="#35625e" stroke-width="5" fill="none" stroke-linecap="round"/><path d="M61 45 L78.61 52.12" stroke="#1a3533" stroke-width="11.5" stroke-linecap="round" fill="none" /><path d="M61 45 L78.61 52.12" stroke="#5f9c96" stroke-width="9" stroke-linecap="round" fill="none" /><path d="M78.61 52.12 L91.65 67.29" stroke="#1a3533" stroke-width="10" stroke-linecap="round" fill="none" /><path d="M78.61 52.12 L91.65 67.29" stroke="#5f9c96" stroke-width="7.8" stroke-linecap="round" fill="none" /><path d="M83.83 58.19 L78.61 52.12" stroke="#8fc4bd" stroke-width="2.2" stroke-linecap="round" fill="none" opacity=".35"/><path d="M61 83 L76.85 93.48" stroke="#1a3533" stroke-width="11.5" stroke-linecap="round" fill="none" /><path d="M61 83 L76.85 93.48" stroke="#5f9c96" stroke-width="9" stroke-linecap="round" fill="none" /><path d="M76.85 93.48 L74.22 73.65" stroke="#1a3533" stroke-width="10" stroke-linecap="round" fill="none" /><path d="M76.85 93.48 L74.22 73.65" stroke="#5f9c96" stroke-width="7.8" stroke-linecap="round" fill="none" /><path d="M75.8 85.55 L76.85 93.48" stroke="#8fc4bd" stroke-width="2.2" stroke-linecap="round" fill="none" opacity=".35"/><g transform="translate(66 72) rotate(-6)"><path d="M0 -3.5 L-14 -4.5 Q-16 0 -14 4.5 L0 3.5 Z" fill="#3b3f2e" stroke="#0b0b0b" stroke-width="0.8"/><rect x="0" y="-5" width="16" height="10" rx="2" fill="#2c3024" stroke="#0b0b0b" stroke-width="0.8"/><circle cx="9" cy="0" r="8" fill="#4a5038" stroke="#0b0b0b" stroke-width="1"/><circle cx="13.5" cy="0.0" r="1.6" fill="#1a1c14"/><circle cx="11.3" cy="3.9" r="1.6" fill="#1a1c14"/><circle cx="6.8" cy="3.9" r="1.6" fill="#1a1c14"/><circle cx="4.5" cy="0.0" r="1.6" fill="#1a1c14"/><circle cx="6.7" cy="-3.9" r="1.6" fill="#1a1c14"/><circle cx="11.3" cy="-3.9" r="1.6" fill="#1a1c14"/><rect x="16" y="-5.5" width="26" height="11" rx="3" fill="#353a2a" stroke="#0b0b0b" stroke-width="0.8"/><rect x="18" y="-5.5" width="22" height="2.2" fill="#6b7258" opacity=".7"/><circle cx="42" cy="0" r="4.2" fill="#0a0a0a"/></g><circle cx="91.65" cy="67.29" r="5" fill="#232323" stroke="#0e0e0e" stroke-width="1"/><circle cx="74.22" cy="73.65" r="5.2" fill="#232323" stroke="#0e0e0e" stroke-width="1"/><ellipse cx="62" cy="52.6" rx="2.6" ry="2" fill="#a47e60"/><ellipse cx="62" cy="75.4" rx="2.6" ry="2" fill="#a47e60"/><circle cx="63.5" cy="64" r="11.6" fill="url(#psk)" stroke="#2b1f16" stroke-width="1.2"/><path d="M71 56.5 Q64 64 71 71.5 L60 76.5 Q50 64 60 51.5 Z" fill="url(#phr)"/><circle cx="61" cy="64" r="10.6" fill="url(#phr)"/><path d="M54 59 L60 60.5 L66 59" stroke="#20170f" stroke-width="1" stroke-linecap="round" stroke-linejoin="round" fill="none" opacity=".6"/><path d="M54 69 L60 67.5 L66 69" stroke="#20170f" stroke-width="1" stroke-linecap="round" stroke-linejoin="round" fill="none" opacity=".6"/><path d="M53 64 L62 64.5" stroke="#6b523b" stroke-width="1" stroke-linecap="round" stroke-linejoin="round" fill="none" opacity=".5"/></g><g transform="translate(256 0)"><rect x="31" y="51" width="7" height="26" rx="3.5" fill="#3d4632" stroke="#1d2218" stroke-width="1"/><path d="M32 58 L37 58" stroke="#262c1f" stroke-width="1.4" stroke-linecap="round" fill="none" /><path d="M32 70 L37 70" stroke="#262c1f" stroke-width="1.4" stroke-linecap="round" fill="none" /><rect x="36" y="47" width="19" height="34" rx="5.5" fill="url(#ppk)" stroke="#20170e" stroke-width="1.3"/><rect x="38.5" y="51" width="9" height="26" rx="3" fill="#8e897c" opacity=".55"/><path d="M40 64 L46 64" stroke="#1c140c" stroke-width="1.2" stroke-linecap="round" fill="none" opacity=".7"/><ellipse cx="61" cy="64" rx="15.5" ry="25" fill="url(#pjk)" stroke="#1a3533" stroke-width="1.5"/><path d="M66 44 Q72 64 66 84" stroke="#35625e" stroke-width="1.4" fill="none" opacity=".6"/><path d="M47 50 Q57 45.5 70 49" stroke="#2a2016" stroke-width="3.4" fill="none" stroke-linecap="round"/><path d="M47 78 Q57 82.5 70 79" stroke="#2a2016" stroke-width="3.4" fill="none" stroke-linecap="round"/><path d="M53.5 54 Q49 64 53.5 74" stroke="#35625e" stroke-width="5" fill="none" stroke-linecap="round"/><path d="M61 45 L72.63 60.03" stroke="#1a3533" stroke-width="11.5" stroke-linecap="round" fill="none" /><path d="M61 45 L72.63 60.03" stroke="#5f9c96" stroke-width="9" stroke-linecap="round" fill="none" /><path d="M72.63 60.03 L79.25 78.9" stroke="#1a3533" stroke-width="10" stroke-linecap="round" fill="none" /><path d="M72.63 60.03 L79.25 78.9" stroke="#5f9c96" stroke-width="7.8" stroke-linecap="round" fill="none" /><path d="M75.28 67.58 L72.63 60.03" stroke="#8fc4bd" stroke-width="2.2" stroke-linecap="round" fill="none" opacity=".35"/><path d="M61 83 L73.52 97.29" stroke="#1a3533" stroke-width="11.5" stroke-linecap="round" fill="none" /><path d="M61 83 L73.52 97.29" stroke="#5f9c96" stroke-width="9" stroke-linecap="round" fill="none" /><path d="M73.52 97.29 L74.48 77.31" stroke="#1a3533" stroke-width="10" stroke-linecap="round" fill="none" /><path d="M73.52 97.29 L74.48 77.31" stroke="#5f9c96" stroke-width="7.8" stroke-linecap="round" fill="none" /><path d="M73.9 89.3 L73.52 97.29" stroke="#8fc4bd" stroke-width="2.2" stroke-linecap="round" fill="none" opacity=".35"/><g transform="translate(68 72) rotate(22)"><path d="M0 -3.5 L-14 -4.5 Q-16 0 -14 4.5 L0 3.5 Z" fill="#3b3f2e" stroke="#0b0b0b" stroke-width="0.8"/><rect x="0" y="-5" width="16" height="10" rx="2" fill="#2c3024" stroke="#0b0b0b" stroke-width="0.8"/><circle cx="9" cy="0" r="8" fill="#4a5038" stroke="#0b0b0b" stroke-width="1"/><circle cx="13.5" cy="0.0" r="1.6" fill="#1a1c14"/><circle cx="11.3" cy="3.9" r="1.6" fill="#1a1c14"/><circle cx="6.8" cy="3.9" r="1.6" fill="#1a1c14"/><circle cx="4.5" cy="0.0" r="1.6" fill="#1a1c14"/><circle cx="6.7" cy="-3.9" r="1.6" fill="#1a1c14"/><circle cx="11.3" cy="-3.9" r="1.6" fill="#1a1c14"/><rect x="16" y="-5.5" width="26" height="11" rx="3" fill="#353a2a" stroke="#0b0b0b" stroke-width="0.8"/><rect x="18" y="-5.5" width="22" height="2.2" fill="#6b7258" opacity=".7"/><circle cx="42" cy="0" r="4.2" fill="#0a0a0a"/></g><circle cx="79.25" cy="78.9" r="5" fill="#232323" stroke="#0e0e0e" stroke-width="1"/><circle cx="74.48" cy="77.31" r="5.2" fill="#232323" stroke="#0e0e0e" stroke-width="1"/><ellipse cx="62" cy="52.6" rx="2.6" ry="2" fill="#a47e60"/><ellipse cx="62" cy="75.4" rx="2.6" ry="2" fill="#a47e60"/><circle cx="63.5" cy="64" r="11.6" fill="url(#psk)" stroke="#2b1f16" stroke-width="1.2"/><path d="M71 56.5 Q64 64 71 71.5 L60 76.5 Q50 64 60 51.5 Z" fill="url(#phr)"/><circle cx="61" cy="64" r="10.6" fill="url(#phr)"/><path d="M54 59 L60 60.5 L66 59" stroke="#20170f" stroke-width="1" stroke-linecap="round" stroke-linejoin="round" fill="none" opacity=".6"/><path d="M54 69 L60 67.5 L66 69" stroke="#20170f" stroke-width="1" stroke-linecap="round" stroke-linejoin="round" fill="none" opacity=".6"/><path d="M53 64 L62 64.5" stroke="#6b523b" stroke-width="1" stroke-linecap="round" stroke-linejoin="round" fill="none" opacity=".5"/></g><g transform="translate(384 0)"><rect x="31" y="51" width="7" height="26" rx="3.5" fill="#3d4632" stroke="#1d2218" stroke-width="1"/><path d="M32 58 L37 58" stroke="#262c1f" stroke-width="1.4" stroke-linecap="round" fill="none" /><path d="M32 70 L37 70" stroke="#262c1f" stroke-width="1.4" stroke-linecap="round" fill="none" /><rect x="36" y="47" width="19" height="34" rx="5.5" fill="url(#ppk)" stroke="#20170e" stroke-width="1.3"/><rect x="38.5" y="51" width="9" height="26" rx="3" fill="#8e897c" opacity=".55"/><path d="M40 64 L46 64" stroke="#1c140c" stroke-width="1.2" stroke-linecap="round" fill="none" opacity=".7"/><ellipse cx="61" cy="64" rx="15.5" ry="25" fill="url(#pjk)" stroke="#1a3533" stroke-width="1.5"/><path d="M66 44 Q72 64 66 84" stroke="#35625e" stroke-width="1.4" fill="none" opacity=".6"/><path d="M47 50 Q57 45.5 70 49" stroke="#2a2016" stroke-width="3.4" fill="none" stroke-linecap="round"/><path d="M47 78 Q57 82.5 70 79" stroke="#2a2016" stroke-width="3.4" fill="none" stroke-linecap="round"/><path d="M53.5 54 Q49 64 53.5 74" stroke="#35625e" stroke-width="5" fill="none" stroke-linecap="round"/><path d="M61 45 L66.78 63.1" stroke="#1a3533" stroke-width="11.5" stroke-linecap="round" fill="none" /><path d="M61 45 L66.78 63.1" stroke="#5f9c96" stroke-width="9" stroke-linecap="round" fill="none" /><path d="M66.78 63.1 L66.56 83.1" stroke="#1a3533" stroke-width="10" stroke-linecap="round" fill="none" /><path d="M66.78 63.1 L66.56 83.1" stroke="#5f9c96" stroke-width="7.8" stroke-linecap="round" fill="none" /><path d="M66.69 71.1 L66.78 63.1" stroke="#8fc4bd" stroke-width="2.2" stroke-linecap="round" fill="none" opacity=".35"/><path d="M61 83 L73.52 97.29" stroke="#1a3533" stroke-width="11.5" stroke-linecap="round" fill="none" /><path d="M61 83 L73.52 97.29" stroke="#5f9c96" stroke-width="9" stroke-linecap="round" fill="none" /><path d="M73.52 97.29 L74.48 77.31" stroke="#1a3533" stroke-width="10" stroke-linecap="round" fill="none" /><path d="M73.52 97.29 L74.48 77.31" stroke="#5f9c96" stroke-width="7.8" stroke-linecap="round" fill="none" /><path d="M73.9 89.3 L73.52 97.29" stroke="#8fc4bd" stroke-width="2.2" stroke-linecap="round" fill="none" opacity=".35"/><g transform="translate(68 72) rotate(22)"><path d="M0 -3.5 L-14 -4.5 Q-16 0 -14 4.5 L0 3.5 Z" fill="#3b3f2e" stroke="#0b0b0b" stroke-width="0.8"/><rect x="0" y="-5" width="16" height="10" rx="2" fill="#2c3024" stroke="#0b0b0b" stroke-width="0.8"/><circle cx="9" cy="0" r="8" fill="#4a5038" stroke="#0b0b0b" stroke-width="1"/><circle cx="13.5" cy="0.0" r="1.6" fill="#1a1c14"/><circle cx="11.3" cy="3.9" r="1.6" fill="#1a1c14"/><circle cx="6.8" cy="3.9" r="1.6" fill="#1a1c14"/><circle cx="4.5" cy="0.0" r="1.6" fill="#1a1c14"/><circle cx="6.7" cy="-3.9" r="1.6" fill="#1a1c14"/><circle cx="11.3" cy="-3.9" r="1.6" fill="#1a1c14"/><rect x="16" y="-5.5" width="26" height="11" rx="3" fill="#353a2a" stroke="#0b0b0b" stroke-width="0.8"/><rect x="18" y="-5.5" width="22" height="2.2" fill="#6b7258" opacity=".7"/><circle cx="42" cy="0" r="4.2" fill="#0a0a0a"/></g><rect x="64.06" y="77.1" width="5" height="11" rx="1" fill="#111" transform="rotate(20 66.56 83.1)"/><circle cx="66.56" cy="83.1" r="5" fill="#232323" stroke="#0e0e0e" stroke-width="1"/><circle cx="74.48" cy="77.31" r="5.2" fill="#232323" stroke="#0e0e0e" stroke-width="1"/><ellipse cx="62" cy="52.6" rx="2.6" ry="2" fill="#a47e60"/><ellipse cx="62" cy="75.4" rx="2.6" ry="2" fill="#a47e60"/><circle cx="63.5" cy="64" r="11.6" fill="url(#psk)" stroke="#2b1f16" stroke-width="1.2"/><path d="M71 56.5 Q64 64 71 71.5 L60 76.5 Q50 64 60 51.5 Z" fill="url(#phr)"/><circle cx="61" cy="64" r="10.6" fill="url(#phr)"/><path d="M54 59 L60 60.5 L66 59" stroke="#20170f" stroke-width="1" stroke-linecap="round" stroke-linejoin="round" fill="none" opacity=".6"/><path d="M54 69 L60 67.5 L66 69" stroke="#20170f" stroke-width="1" stroke-linecap="round" stroke-linejoin="round" fill="none" opacity=".6"/><path d="M53 64 L62 64.5" stroke="#6b523b" stroke-width="1" stroke-linecap="round" stroke-linejoin="round" fill="none" opacity=".5"/></g><g transform="translate(512 0)"><rect x="31" y="51" width="7" height="26" rx="3.5" fill="#3d4632" stroke="#1d2218" stroke-width="1"/><path d="M32 58 L37 58" stroke="#262c1f" stroke-width="1.4" stroke-linecap="round" fill="none" /><path d="M32 70 L37 70" stroke="#262c1f" stroke-width="1.4" stroke-linecap="round" fill="none" /><rect x="36" y="47" width="19" height="34" rx="5.5" fill="url(#ppk)" stroke="#20170e" stroke-width="1.3"/><rect x="38.5" y="51" width="9" height="26" rx="3" fill="#8e897c" opacity=".55"/><path d="M40 64 L46 64" stroke="#1c140c" stroke-width="1.2" stroke-linecap="round" fill="none" opacity=".7"/><ellipse cx="61" cy="64" rx="15.5" ry="25" fill="url(#pjk)" stroke="#1a3533" stroke-width="1.5"/><path d="M66 44 Q72 64 66 84" stroke="#35625e" stroke-width="1.4" fill="none" opacity=".6"/><path d="M47 50 Q57 45.5 70 49" stroke="#2a2016" stroke-width="3.4" fill="none" stroke-linecap="round"/><path d="M47 78 Q57 82.5 70 79" stroke="#2a2016" stroke-width="3.4" fill="none" stroke-linecap="round"/><path d="M53.5 54 Q49 64 53.5 74" stroke="#35625e" stroke-width="5" fill="none" stroke-linecap="round"/><path d="M61 45 L71.05 61.12" stroke="#1a3533" stroke-width="11.5" stroke-linecap="round" fill="none" /><path d="M61 45 L71.05 61.12" stroke="#5f9c96" stroke-width="9" stroke-linecap="round" fill="none" /><path d="M71.05 61.12 L75.75 80.56" stroke="#1a3533" stroke-width="10" stroke-linecap="round" fill="none" /><path d="M71.05 61.12 L75.75 80.56" stroke="#5f9c96" stroke-width="7.8" stroke-linecap="round" fill="none" /><path d="M72.93 68.9 L71.05 61.12" stroke="#8fc4bd" stroke-width="2.2" stroke-linecap="round" fill="none" opacity=".35"/><path d="M61 83 L73.52 97.29" stroke="#1a3533" stroke-width="11.5" stroke-linecap="round" fill="none" /><path d="M61 83 L73.52 97.29" stroke="#5f9c96" stroke-width="9" stroke-linecap="round" fill="none" /><path d="M73.52 97.29 L74.48 77.31" stroke="#1a3533" stroke-width="10" stroke-linecap="round" fill="none" /><path d="M73.52 97.29 L74.48 77.31" stroke="#5f9c96" stroke-width="7.8" stroke-linecap="round" fill="none" /><path d="M73.9 89.3 L73.52 97.29" stroke="#8fc4bd" stroke-width="2.2" stroke-linecap="round" fill="none" opacity=".35"/><g transform="translate(68 72) rotate(22)"><path d="M0 -3.5 L-14 -4.5 Q-16 0 -14 4.5 L0 3.5 Z" fill="#3b3f2e" stroke="#0b0b0b" stroke-width="0.8"/><rect x="0" y="-5" width="16" height="10" rx="2" fill="#2c3024" stroke="#0b0b0b" stroke-width="0.8"/><circle cx="9" cy="0" r="8" fill="#4a5038" stroke="#0b0b0b" stroke-width="1"/><circle cx="13.5" cy="0.0" r="1.6" fill="#1a1c14"/><circle cx="11.3" cy="3.9" r="1.6" fill="#1a1c14"/><circle cx="6.8" cy="3.9" r="1.6" fill="#1a1c14"/><circle cx="4.5" cy="0.0" r="1.6" fill="#1a1c14"/><circle cx="6.7" cy="-3.9" r="1.6" fill="#1a1c14"/><circle cx="11.3" cy="-3.9" r="1.6" fill="#1a1c14"/><rect x="16" y="-5.5" width="26" height="11" rx="3" fill="#353a2a" stroke="#0b0b0b" stroke-width="0.8"/><rect x="18" y="-5.5" width="22" height="2.2" fill="#6b7258" opacity=".7"/><circle cx="42" cy="0" r="4.2" fill="#0a0a0a"/></g><rect x="73.25" y="74.56" width="5" height="11" rx="1" fill="#111" transform="rotate(20 75.75 80.56)"/><circle cx="75.75" cy="80.56" r="5" fill="#232323" stroke="#0e0e0e" stroke-width="1"/><circle cx="74.48" cy="77.31" r="5.2" fill="#232323" stroke="#0e0e0e" stroke-width="1"/><ellipse cx="62" cy="52.6" rx="2.6" ry="2" fill="#a47e60"/><ellipse cx="62" cy="75.4" rx="2.6" ry="2" fill="#a47e60"/><circle cx="63.5" cy="64" r="11.6" fill="url(#psk)" stroke="#2b1f16" stroke-width="1.2"/><path d="M71 56.5 Q64 64 71 71.5 L60 76.5 Q50 64 60 51.5 Z" fill="url(#phr)"/><circle cx="61" cy="64" r="10.6" fill="url(#phr)"/><path d="M54 59 L60 60.5 L66 59" stroke="#20170f" stroke-width="1" stroke-linecap="round" stroke-linejoin="round" fill="none" opacity=".6"/><path d="M54 69 L60 67.5 L66 69" stroke="#20170f" stroke-width="1" stroke-linecap="round" stroke-linejoin="round" fill="none" opacity=".6"/><path d="M53 64 L62 64.5" stroke="#6b523b" stroke-width="1" stroke-linecap="round" stroke-linejoin="round" fill="none" opacity=".5"/></g><g transform="translate(640 0)"><rect x="31" y="51" width="7" height="26" rx="3.5" fill="#3d4632" stroke="#1d2218" stroke-width="1"/><path d="M32 58 L37 58" stroke="#262c1f" stroke-width="1.4" stroke-linecap="round" fill="none" /><path d="M32 70 L37 70" stroke="#262c1f" stroke-width="1.4" stroke-linecap="round" fill="none" /><rect x="36" y="47" width="19" height="34" rx="5.5" fill="url(#ppk)" stroke="#20170e" stroke-width="1.3"/><rect x="38.5" y="51" width="9" height="26" rx="3" fill="#8e897c" opacity=".55"/><path d="M40 64 L46 64" stroke="#1c140c" stroke-width="1.2" stroke-linecap="round" fill="none" opacity=".7"/><ellipse cx="61" cy="64" rx="15.5" ry="25" fill="url(#pjk)" stroke="#1a3533" stroke-width="1.5"/><path d="M66 44 Q72 64 66 84" stroke="#35625e" stroke-width="1.4" fill="none" opacity=".6"/><path d="M47 50 Q57 45.5 70 49" stroke="#2a2016" stroke-width="3.4" fill="none" stroke-linecap="round"/><path d="M47 78 Q57 82.5 70 79" stroke="#2a2016" stroke-width="3.4" fill="none" stroke-linecap="round"/><path d="M53.5 54 Q49 64 53.5 74" stroke="#35625e" stroke-width="5" fill="none" stroke-linecap="round"/><path d="M61 45 L73.61 59.21" stroke="#1a3533" stroke-width="11.5" stroke-linecap="round" fill="none" /><path d="M61 45 L73.61 59.21" stroke="#5f9c96" stroke-width="9" stroke-linecap="round" fill="none" /><path d="M73.61 59.21 L81.49 77.6" stroke="#1a3533" stroke-width="10" stroke-linecap="round" fill="none" /><path d="M73.61 59.21 L81.49 77.6" stroke="#5f9c96" stroke-width="7.8" stroke-linecap="round" fill="none" /><path d="M76.76 66.57 L73.61 59.21" stroke="#8fc4bd" stroke-width="2.2" stroke-linecap="round" fill="none" opacity=".35"/><path d="M61 83 L73.52 97.29" stroke="#1a3533" stroke-width="11.5" stroke-linecap="round" fill="none" /><path d="M61 83 L73.52 97.29" stroke="#5f9c96" stroke-width="9" stroke-linecap="round" fill="none" /><path d="M73.52 97.29 L74.48 77.31" stroke="#1a3533" stroke-width="10" stroke-linecap="round" fill="none" /><path d="M73.52 97.29 L74.48 77.31" stroke="#5f9c96" stroke-width="7.8" stroke-linecap="round" fill="none" /><path d="M73.9 89.3 L73.52 97.29" stroke="#8fc4bd" stroke-width="2.2" stroke-linecap="round" fill="none" opacity=".35"/><g transform="translate(68 72) rotate(22)"><path d="M0 -3.5 L-14 -4.5 Q-16 0 -14 4.5 L0 3.5 Z" fill="#3b3f2e" stroke="#0b0b0b" stroke-width="0.8"/><rect x="0" y="-5" width="16" height="10" rx="2" fill="#2c3024" stroke="#0b0b0b" stroke-width="0.8"/><circle cx="9" cy="0" r="8" fill="#4a5038" stroke="#0b0b0b" stroke-width="1"/><circle cx="13.5" cy="0.0" r="1.6" fill="#1a1c14"/><circle cx="11.3" cy="3.9" r="1.6" fill="#1a1c14"/><circle cx="6.8" cy="3.9" r="1.6" fill="#1a1c14"/><circle cx="4.5" cy="0.0" r="1.6" fill="#1a1c14"/><circle cx="6.7" cy="-3.9" r="1.6" fill="#1a1c14"/><circle cx="11.3" cy="-3.9" r="1.6" fill="#1a1c14"/><rect x="16" y="-5.5" width="26" height="11" rx="3" fill="#353a2a" stroke="#0b0b0b" stroke-width="0.8"/><rect x="18" y="-5.5" width="22" height="2.2" fill="#6b7258" opacity=".7"/><circle cx="42" cy="0" r="4.2" fill="#0a0a0a"/></g><rect x="78.99" y="71.6" width="5" height="11" rx="1" fill="#111" transform="rotate(20 81.49 77.6)"/><circle cx="81.49" cy="77.6" r="5" fill="#232323" stroke="#0e0e0e" stroke-width="1"/><circle cx="74.48" cy="77.31" r="5.2" fill="#232323" stroke="#0e0e0e" stroke-width="1"/><ellipse cx="62" cy="52.6" rx="2.6" ry="2" fill="#a47e60"/><ellipse cx="62" cy="75.4" rx="2.6" ry="2" fill="#a47e60"/><circle cx="63.5" cy="64" r="11.6" fill="url(#psk)" stroke="#2b1f16" stroke-width="1.2"/><path d="M71 56.5 Q64 64 71 71.5 L60 76.5 Q50 64 60 51.5 Z" fill="url(#phr)"/><circle cx="61" cy="64" r="10.6" fill="url(#phr)"/><path d="M54 59 L60 60.5 L66 59" stroke="#20170f" stroke-width="1" stroke-linecap="round" stroke-linejoin="round" fill="none" opacity=".6"/><path d="M54 69 L60 67.5 L66 69" stroke="#20170f" stroke-width="1" stroke-linecap="round" stroke-linejoin="round" fill="none" opacity=".6"/><path d="M53 64 L62 64.5" stroke="#6b523b" stroke-width="1" stroke-linecap="round" stroke-linejoin="round" fill="none" opacity=".5"/></g><g transform="translate(768 0)"><rect x="31" y="51" width="7" height="26" rx="3.5" fill="#3d4632" stroke="#1d2218" stroke-width="1"/><path d="M32 58 L37 58" stroke="#262c1f" stroke-width="1.4" stroke-linecap="round" fill="none" /><path d="M32 70 L37 70" stroke="#262c1f" stroke-width="1.4" stroke-linecap="round" fill="none" /><rect x="36" y="47" width="19" height="34" rx="5.5" fill="url(#ppk)" stroke="#20170e" stroke-width="1.3"/><rect x="38.5" y="51" width="9" height="26" rx="3" fill="#8e897c" opacity=".55"/><path d="M40 64 L46 64" stroke="#1c140c" stroke-width="1.2" stroke-linecap="round" fill="none" opacity=".7"/><ellipse cx="61" cy="64" rx="15.5" ry="25" fill="url(#pjk)" stroke="#1a3533" stroke-width="1.5"/><path d="M66 44 Q72 64 66 84" stroke="#35625e" stroke-width="1.4" fill="none" opacity=".6"/><path d="M47 50 Q57 45.5 70 49" stroke="#2a2016" stroke-width="3.4" fill="none" stroke-linecap="round"/><path d="M47 78 Q57 82.5 70 79" stroke="#2a2016" stroke-width="3.4" fill="none" stroke-linecap="round"/><path d="M53.5 54 Q49 64 53.5 74" stroke="#35625e" stroke-width="5" fill="none" stroke-linecap="round"/><path d="M61 45 L77.18 54.97" stroke="#1a3533" stroke-width="11.5" stroke-linecap="round" fill="none" /><path d="M61 45 L77.18 54.97" stroke="#5f9c96" stroke-width="9" stroke-linecap="round" fill="none" /><path d="M77.18 54.97 L90.03 70.29" stroke="#1a3533" stroke-width="10" stroke-linecap="round" fill="none" /><path d="M77.18 54.97 L90.03 70.29" stroke="#5f9c96" stroke-width="7.8" stroke-linecap="round" fill="none" /><path d="M82.32 61.09 L77.18 54.97" stroke="#8fc4bd" stroke-width="2.2" stroke-linecap="round" fill="none" opacity=".35"/><path d="M61 83 L75.77 94.95" stroke="#1a3533" stroke-width="11.5" stroke-linecap="round" fill="none" /><path d="M61 83 L75.77 94.95" stroke="#5f9c96" stroke-width="9" stroke-linecap="round" fill="none" /><path d="M75.77 94.95 L77.81 75.05" stroke="#1a3533" stroke-width="10" stroke-linecap="round" fill="none" /><path d="M75.77 94.95 L77.81 75.05" stroke="#5f9c96" stroke-width="7.8" stroke-linecap="round" fill="none" /><path d="M76.59 86.99 L75.77 94.95" stroke="#8fc4bd" stroke-width="2.2" stroke-linecap="round" fill="none" opacity=".35"/><g transform="translate(70 72) rotate(4)"><path d="M0 -3.5 L-14 -4.5 Q-16 0 -14 4.5 L0 3.5 Z" fill="#3b3f2e" stroke="#0b0b0b" stroke-width="0.8"/><rect x="0" y="-5" width="16" height="10" rx="2" fill="#2c3024" stroke="#0b0b0b" stroke-width="0.8"/><circle cx="9" cy="0" r="8" fill="#4a5038" stroke="#0b0b0b" stroke-width="1"/><circle cx="13.5" cy="0.0" r="1.6" fill="#1a1c14"/><circle cx="11.3" cy="3.9" r="1.6" fill="#1a1c14"/><circle cx="6.8" cy="3.9" r="1.6" fill="#1a1c14"/><circle cx="4.5" cy="0.0" r="1.6" fill="#1a1c14"/><circle cx="6.7" cy="-3.9" r="1.6" fill="#1a1c14"/><circle cx="11.3" cy="-3.9" r="1.6" fill="#1a1c14"/><rect x="16" y="-5.5" width="26" height="11" rx="3" fill="#353a2a" stroke="#0b0b0b" stroke-width="0.8"/><rect x="18" y="-5.5" width="22" height="2.2" fill="#6b7258" opacity=".7"/><circle cx="42" cy="0" r="4.2" fill="#0a0a0a"/></g><circle cx="90.03" cy="70.29" r="5" fill="#232323" stroke="#0e0e0e" stroke-width="1"/><circle cx="77.81" cy="75.05" r="5.2" fill="#232323" stroke="#0e0e0e" stroke-width="1"/><ellipse cx="62" cy="52.6" rx="2.6" ry="2" fill="#a47e60"/><ellipse cx="62" cy="75.4" rx="2.6" ry="2" fill="#a47e60"/><circle cx="63.5" cy="64" r="11.6" fill="url(#psk)" stroke="#2b1f16" stroke-width="1.2"/><path d="M71 56.5 Q64 64 71 71.5 L60 76.5 Q50 64 60 51.5 Z" fill="url(#phr)"/><circle cx="61" cy="64" r="10.6" fill="url(#phr)"/><path d="M54 59 L60 60.5 L66 59" stroke="#20170f" stroke-width="1" stroke-linecap="round" stroke-linejoin="round" fill="none" opacity=".6"/><path d="M54 69 L60 67.5 L66 69" stroke="#20170f" stroke-width="1" stroke-linecap="round" stroke-linejoin="round" fill="none" opacity=".6"/><path d="M53 64 L62 64.5" stroke="#6b523b" stroke-width="1" stroke-linecap="round" stroke-linejoin="round" fill="none" opacity=".5"/></g></svg>
