<svg xmlns="http://www.w3.org/2000/svg" width="72" height="72" viewBox="0 0 72 72"><defs><radialGradient id="uch_runner" cx="38%" cy="30%" r="80%"><stop offset="0" stop-color="#b7a9b8"/><stop offset=".65" stop-color="#b7a9b8"/><stop offset="1" stop-color="#7e7080"/></radialGradient><radialGradient id="ukh_runner" cx="40%" cy="32%" r="75%"><stop offset="0" stop-color="#7a8466"/><stop offset=".7" stop-color="#4d5540"/><stop offset="1" stop-color="#30362a"/></radialGradient><radialGradient id="ubh_runner" cx="50%" cy="50%" r="50%"><stop offset="0" stop-color="#5c0d0a" stop-opacity=".95"/><stop offset=".55" stop-color="#3f0806" stop-opacity=".8"/><stop offset="1" stop-color="#3f0806" stop-opacity="0"/></radialGradient><radialGradient id="uph_runner" cx="45%" cy="40%" r="55%"><stop offset="0" stop-color="#fff8b0"/><stop offset=".35" stop-color="#e2ea52"/><stop offset=".75" stop-color="#94ad2c" stop-opacity=".9"/><stop offset="1" stop-color="#4f5a32" stop-opacity="0"/></radialGradient><linearGradient id="umh_runner" x1="0" y1="0" x2="1" y2="1"><stop offset="0" stop-color="#8a9097"/><stop offset="1" stop-color="#4c5157"/></linearGradient><radialGradient id="ugh_runner" cx="50%" cy="50%" r="50%"><stop offset="0" stop-color="#fff2c0"/><stop offset="1" stop-color="#ffd060" stop-opacity="0"/></radialGradient></defs><g transform="translate(0 0)"><ellipse cx="33" cy="13.01" rx="3" ry="2.2" fill="#4d5540" stroke="#0e0f0c" stroke-width="1"/><ellipse cx="33" cy="58.99" rx="3" ry="2.2" fill="#4d5540" stroke="#0e0f0c" stroke-width="1"/><path d="M49.42 23.9 Q60.92 36 49.42 48.1 Z" fill="#30362a" stroke="#0e0f0c" stroke-width="1.2"/><path d="M51.42 28.26 Q57.72 36 51.42 43.74" fill="#1a0806"/><rect x="51.82" y="30.8" width="2" height="1.6" fill="#d8cfae"/><rect x="51.82" y="33" width="2" height="1.6" fill="#d8cfae"/><rect x="51.82" y="35.2" width="2" height="1.6" fill="#d8cfae"/><rect x="51.82" y="37.4" width="2" height="1.6" fill="#d8cfae"/><rect x="51.82" y="39.6" width="2" height="1.6" fill="#d8cfae"/><ellipse cx="34" cy="36" rx="24.2" ry="22.75" fill="url(#ukh_runner)" stroke="#0e0f0c" stroke-width="1.3"/><path d="M46.04 42.85 Q45.14 49.69 40.3 55.57 Q35.46 61.45 27.64 62.7 Q19.82 63.94 15.63 57.12 Q11.45 50.29 6.84 46.32 Q2.24 42.34 2.35 36.03 Q2.47 29.73 5.07 23.53 Q7.67 17.34 13.85 13.41 Q20.02 9.48 27.42 10.71 Q34.82 11.95 37.38 18.8 Q39.94 25.65 43.44 30.83 Q46.94 36 46.04 42.85 Z" fill="#15120f" stroke="#0e0f0c" stroke-width=".8" opacity=".96"/><ellipse cx="33" cy="27.53" rx="2.6" ry="2" fill="#4d5540"/><path d="M31 21.48 q-7 -3 -12 -2" stroke="#15120f" stroke-width="2.4" fill="none"/><path d="M31 50.52 q-7 3 -12 2" stroke="#15120f" stroke-width="2.4" fill="none"/><path d="M27.83 24.81 Q27.36 25.73 26.44 25.94 Q25.53 26.16 24.28 26.28 Q23.02 26.41 22.92 25.15 Q22.82 23.9 23.18 22.9 Q23.53 21.9 24.53 21.4 Q25.53 20.91 26.5 21.43 Q27.47 21.96 27.89 22.93 Q28.31 23.9 27.83 24.81 Z" fill="#30362a" opacity=".85"/><path d="M26.53 24.41 Q26.12 24.92 25.4 25.13 Q24.69 25.35 24.3 24.62 Q23.91 23.9 24.33 23.23 Q24.76 22.56 25.57 22.49 Q26.39 22.41 26.66 23.16 Q26.94 23.9 26.53 24.41 Z" fill="#2a1512" opacity=".9"/><path d="M47.31 21 Q57.72 36 47.31 51" stroke="#30362a" stroke-width="2.2" fill="none"/><ellipse cx="51.42" cy="27.29" rx="1.9" ry="2.4" fill="#141009"/><circle cx="52.63" cy="27.29" r="1.2" fill="#e8e27a" opacity=".9"/><ellipse cx="51.42" cy="44.71" rx="1.9" ry="2.4" fill="#141009"/><circle cx="52.63" cy="44.71" r="1.2" fill="#e8e27a" opacity=".9"/><path d="M54.57 34.6 L60.14 36 L54.57 37.4 Z" fill="#4d5540" stroke="#0e0f0c" stroke-width=".8"/></g></svg>
