<svg xmlns="http://www.w3.org/2000/svg" width="1664" height="128" viewBox="0 0 1664 128"><defs><radialGradient id="zsa" cx="35%" cy="30%" r="75%"><stop offset="0" stop-color="#5e5343" stop-opacity="1"/><stop offset="0.7" stop-color="#5e5343" stop-opacity="1"/><stop offset="1" stop-color="#3a3228" stop-opacity="1"/></radialGradient><radialGradient id="zka" cx="65%" cy="40%" r="75%"><stop offset="0" stop-color="#6c765f" stop-opacity="1"/><stop offset="1" stop-color="#454d3d" stop-opacity="1"/></radialGradient><radialGradient id="zba" cx="50%" cy="50%" r="50%"><stop offset="0" stop-color="#5a0f0c" stop-opacity="0.9"/><stop offset="0.6" stop-color="#3d0907" stop-opacity="0.75"/><stop offset="1" stop-color="#3d0907" stop-opacity="0"/></radialGradient><radialGradient id="zpa" cx="45%" cy="40%" r="55%"><stop offset="0" stop-color="#fff6a0" stop-opacity="1"/><stop offset="0.35" stop-color="#d7e04a" stop-opacity="1"/><stop offset="0.75" stop-color="#8fa82a" stop-opacity="0.9"/><stop offset="1" stop-color="#4f5a32" stop-opacity="0"/></radialGradient><linearGradient id="zma" x1="0" y1="0" x2="1" y2="1"><stop offset="0" stop-color="#7c8288" stop-opacity="1"/><stop offset="1" stop-color="#4a4f55" stop-opacity="1"/></linearGradient></defs><g transform="translate(0 0)"><path d="M60 55.5 L60 54.3" stroke="#272a30" stroke-width="11" stroke-linecap="round" fill="none" /><path d="M60 55.5 L60 54.3" stroke="#3c4048" stroke-width="8.5" stroke-linecap="round" fill="none" /><ellipse cx="63" cy="54.3" rx="7.2" ry="4.6" fill="#231e19" stroke="#110e0c" stroke-width="1"/><path d="M60 72.5 L60 72.5" stroke="#272a30" stroke-width="11" stroke-linecap="round" fill="none" /><path d="M60 72.5 L60 72.5" stroke="#3c4048" stroke-width="8.5" stroke-linecap="round" fill="none" /><ellipse cx="63" cy="72.5" rx="7.2" ry="4.6" fill="#231e19" stroke="#110e0c" stroke-width="1"/><g transform="rotate(0 62 64) translate(0 0)"><path d="M75.55 64 L75.29 68.07 L74.5 71.93 L73.47 75.61 L71.66 78.43 L70.32 81.91 L68.68 85.44 L65.96 86 L63.5 86.82 L61 87.65 L58.46 87.2 L56.24 85.11 L53.64 84.56 L51.84 81.61 L50.1 78.76 L47.84 76.26 L46.75 72.37 L46.24 68.2 L46.24 64 L46.43 59.86 L47.45 56.05 L47.78 51.69 L49.98 49.08 L51.73 46.17 L53.64 43.44 L56.24 42.89 L58.57 41.76 L61 41.31 L63.59 40.32 L65.9 42.26 L68.52 43 L70.9 44.98 L71.82 49.36 L72.85 52.97 L75.05 55.75 L76 59.74 Z" fill="url(#zsa)" stroke="#15130f" stroke-width="1.4"/><path d="M68.63 60.2 Q68.1 61.9 66.43 61.58 Q64.75 61.26 63.1 60.83 Q61.45 60.39 61.48 58.51 Q61.51 56.63 63.07 55.93 Q64.64 55.23 65.81 55.85 Q66.99 56.48 68.07 57.49 Q69.16 58.5 68.63 60.2 Z" fill="#454d3d" opacity=".9"/><path d="M56.09 77.47 Q55.26 78.64 53.93 79.17 Q52.6 79.7 51.2 78.86 Q49.79 78.02 50.4 76.58 Q51.01 75.14 51.77 73.87 Q52.54 72.59 53.75 73.44 Q54.97 74.3 55.95 75.29 Q56.93 76.29 56.09 77.47 Z" fill="#454d3d" opacity=".9"/><path d="M63.5 70.56 Q62.73 72.28 60.91 72.55 Q59.1 72.82 58.08 71.55 Q57.07 70.27 56.24 68.45 Q55.41 66.64 57.23 65.67 Q59.06 64.71 61.14 64.76 Q63.22 64.81 63.75 66.83 Q64.28 68.85 63.5 70.56 Z" fill="#454d3d" opacity=".9"/><ellipse cx="56.61" cy="66.19" rx="5.74" ry="6.37" fill="url(#zba)"/><ellipse cx="53.52" cy="48.74" rx="7.15" ry="5.49" fill="url(#zba)"/><ellipse cx="52.76" cy="58.77" rx="5.89" ry="6.75" fill="url(#zba)"/><ellipse cx="68.76" cy="69.2" rx="6.05" ry="6.68" fill="url(#zba)"/><path d="M60 43.5 L80.42 41.42" stroke="#141410" stroke-width="11.5" stroke-linecap="round" fill="none" /><path d="M60 43.5 L80.42 41.42" stroke="#5e5343" stroke-width="9.2" stroke-linecap="round" fill="none" /><path d="M60 43.5 L80.42 41.42" stroke="#3a3228" stroke-width="3" stroke-linecap="round" fill="none" opacity=".5"/><path d="M80.42 41.42 L98.47 44.98" stroke="#1a1d16" stroke-width="8.6" stroke-linecap="round" fill="none" /><path d="M80.42 41.42 L98.47 44.98" stroke="#6c765f" stroke-width="6.6" stroke-linecap="round" fill="none" /><path d="M80.42 41.42 L98.47 44.98" stroke="#2c2a1f" stroke-width="6.6" stroke-linecap="round" fill="none" opacity=".25"/><path d="M78.85 41.11 L98.47 44.98" stroke="#454d3d" stroke-width="2" stroke-linecap="round" fill="none" opacity=".5"/><path d="M98.47 44.98 L105.03 42.54" stroke="#454d3d" stroke-width="2.3" stroke-linecap="round" fill="none" /><path d="M98.47 44.98 L105.46 45.29" stroke="#454d3d" stroke-width="2.3" stroke-linecap="round" fill="none" /><path d="M98.47 44.98 L104.79 47.99" stroke="#454d3d" stroke-width="2.3" stroke-linecap="round" fill="none" /><circle cx="98.47" cy="44.98" r="4.4" fill="#6c765f" stroke="#1a1d16" stroke-width="1"/><circle cx="97.47" cy="45.98" r="2" fill="#4a0d0a" opacity=".8"/><path d="M60 84.5 L79.23 90.57" stroke="#141410" stroke-width="11.5" stroke-linecap="round" fill="none" /><path d="M60 84.5 L79.23 90.57" stroke="#5e5343" stroke-width="9.2" stroke-linecap="round" fill="none" /><path d="M60 84.5 L79.23 90.57" stroke="#3a3228" stroke-width="3" stroke-linecap="round" fill="none" opacity=".5"/><path d="M79.23 90.57 L96 83" stroke="#1a1d16" stroke-width="8.6" stroke-linecap="round" fill="none" /><path d="M79.23 90.57 L96 83" stroke="#6c765f" stroke-width="6.6" stroke-linecap="round" fill="none" /><path d="M79.23 90.57 L96 83" stroke="#2c2a1f" stroke-width="6.6" stroke-linecap="round" fill="none" opacity=".25"/><path d="M77.77 91.23 L96 83" stroke="#454d3d" stroke-width="2" stroke-linecap="round" fill="none" opacity=".5"/><path d="M96 83 L99.93 77.21" stroke="#454d3d" stroke-width="2.3" stroke-linecap="round" fill="none" /><path d="M96 83 L101.88 79.2" stroke="#454d3d" stroke-width="2.3" stroke-linecap="round" fill="none" /><path d="M96 83 L102.89 81.79" stroke="#454d3d" stroke-width="2.3" stroke-linecap="round" fill="none" /><circle cx="96" cy="83" r="4.4" fill="#6c765f" stroke="#1a1d16" stroke-width="1"/><circle cx="65.5" cy="64.5" r="11.2" fill="url(#zka)" stroke="#1a1d16" stroke-width="1.2"/><path d="M69.83 66.97 Q69.08 69.94 66.2 70.72 Q63.32 71.5 60.05 72.27 Q56.79 73.03 55.37 69.98 Q53.96 66.93 53.79 63.94 Q53.63 60.95 55.82 59.02 Q58.01 57.08 60.68 56.68 Q63.36 56.27 66.51 56.93 Q69.65 57.58 70.12 60.79 Q70.58 64 69.83 66.97 Z" fill="#2a241e" opacity=".95"/><circle cx="64.5" cy="58" r="2.4" fill="#454d3d"/><path d="M66.96 65.47 Q66.85 66.78 65.42 67.17 Q63.99 67.56 62.55 66.74 Q61.11 65.93 61.03 64.13 Q60.95 62.33 62.48 61.58 Q64.01 60.83 65.46 61.16 Q66.91 61.49 66.99 62.83 Q67.08 64.17 66.96 65.47 Z" fill="#5a0e0b"/></g></g><g transform="translate(128 0)"><path d="M60 55.5 L67.78 54.65" stroke="#272a30" stroke-width="11" stroke-linecap="round" fill="none" /><path d="M60 55.5 L67.78 54.65" stroke="#3c4048" stroke-width="8.5" stroke-linecap="round" fill="none" /><ellipse cx="70.78" cy="54.65" rx="7.2" ry="4.6" fill="#231e19" stroke="#110e0c" stroke-width="1"/><path d="M60 72.5 L55.72 72.5" stroke="#272a30" stroke-width="11" stroke-linecap="round" fill="none" /><path d="M60 72.5 L55.72 72.5" stroke="#3c4048" stroke-width="8.5" stroke-linecap="round" fill="none" /><ellipse cx="58.72" cy="72.5" rx="7.2" ry="4.6" fill="#231e19" stroke="#110e0c" stroke-width="1"/><g transform="rotate(4.24 62 64) translate(0 0)"><path d="M75.55 64 L75.29 68.07 L74.5 71.93 L73.47 75.61 L71.66 78.43 L70.32 81.91 L68.68 85.44 L65.96 86 L63.5 86.82 L61 87.65 L58.46 87.2 L56.24 85.11 L53.64 84.56 L51.84 81.61 L50.1 78.76 L47.84 76.26 L46.75 72.37 L46.24 68.2 L46.24 64 L46.43 59.86 L47.45 56.05 L47.78 51.69 L49.98 49.08 L51.73 46.17 L53.64 43.44 L56.24 42.89 L58.57 41.76 L61 41.31 L63.59 40.32 L65.9 42.26 L68.52 43 L70.9 44.98 L71.82 49.36 L72.85 52.97 L75.05 55.75 L76 59.74 Z" fill="url(#zsa)" stroke="#15130f" stroke-width="1.4"/><path d="M68.63 60.2 Q68.1 61.9 66.43 61.58 Q64.75 61.26 63.1 60.83 Q61.45 60.39 61.48 58.51 Q61.51 56.63 63.07 55.93 Q64.64 55.23 65.81 55.85 Q66.99 56.48 68.07 57.49 Q69.16 58.5 68.63 60.2 Z" fill="#454d3d" opacity=".9"/><path d="M56.09 77.47 Q55.26 78.64 53.93 79.17 Q52.6 79.7 51.2 78.86 Q49.79 78.02 50.4 76.58 Q51.01 75.14 51.77 73.87 Q52.54 72.59 53.75 73.44 Q54.97 74.3 55.95 75.29 Q56.93 76.29 56.09 77.47 Z" fill="#454d3d" opacity=".9"/><path d="M63.5 70.56 Q62.73 72.28 60.91 72.55 Q59.1 72.82 58.08 71.55 Q57.07 70.27 56.24 68.45 Q55.41 66.64 57.23 65.67 Q59.06 64.71 61.14 64.76 Q63.22 64.81 63.75 66.83 Q64.28 68.85 63.5 70.56 Z" fill="#454d3d" opacity=".9"/><ellipse cx="56.61" cy="66.19" rx="5.74" ry="6.37" fill="url(#zba)"/><ellipse cx="53.52" cy="48.74" rx="7.15" ry="5.49" fill="url(#zba)"/><ellipse cx="52.76" cy="58.77" rx="5.89" ry="6.75" fill="url(#zba)"/><ellipse cx="68.76" cy="69.2" rx="6.05" ry="6.68" fill="url(#zba)"/><path d="M60 43.5 L80.44 41.65" stroke="#141410" stroke-width="11.5" stroke-linecap="round" fill="none" /><path d="M60 43.5 L80.44 41.65" stroke="#5e5343" stroke-width="9.2" stroke-linecap="round" fill="none" /><path d="M60 43.5 L80.44 41.65" stroke="#3a3228" stroke-width="3" stroke-linecap="round" fill="none" opacity=".5"/><path d="M80.44 41.65 L98.45 45.42" stroke="#1a1d16" stroke-width="8.6" stroke-linecap="round" fill="none" /><path d="M80.44 41.65 L98.45 45.42" stroke="#6c765f" stroke-width="6.6" stroke-linecap="round" fill="none" /><path d="M80.44 41.65 L98.45 45.42" stroke="#2c2a1f" stroke-width="6.6" stroke-linecap="round" fill="none" opacity=".25"/><path d="M78.88 41.33 L98.45 45.42" stroke="#454d3d" stroke-width="2" stroke-linecap="round" fill="none" opacity=".5"/><path d="M98.45 45.42 L105.04 43.06" stroke="#454d3d" stroke-width="2.3" stroke-linecap="round" fill="none" /><path d="M98.45 45.42 L105.44 45.81" stroke="#454d3d" stroke-width="2.3" stroke-linecap="round" fill="none" /><path d="M98.45 45.42 L104.74 48.5" stroke="#454d3d" stroke-width="2.3" stroke-linecap="round" fill="none" /><circle cx="98.45" cy="45.42" r="4.4" fill="#6c765f" stroke="#1a1d16" stroke-width="1"/><circle cx="97.45" cy="46.42" r="2" fill="#4a0d0a" opacity=".8"/><path d="M60 84.5 L77.96 92.77" stroke="#141410" stroke-width="11.5" stroke-linecap="round" fill="none" /><path d="M60 84.5 L77.96 92.77" stroke="#5e5343" stroke-width="9.2" stroke-linecap="round" fill="none" /><path d="M60 84.5 L77.96 92.77" stroke="#3a3228" stroke-width="3" stroke-linecap="round" fill="none" opacity=".5"/><path d="M77.96 92.77 L93.17 82.41" stroke="#1a1d16" stroke-width="8.6" stroke-linecap="round" fill="none" /><path d="M77.96 92.77 L93.17 82.41" stroke="#6c765f" stroke-width="6.6" stroke-linecap="round" fill="none" /><path d="M77.96 92.77 L93.17 82.41" stroke="#2c2a1f" stroke-width="6.6" stroke-linecap="round" fill="none" opacity=".25"/><path d="M76.64 93.67 L93.17 82.41" stroke="#454d3d" stroke-width="2" stroke-linecap="round" fill="none" opacity=".5"/><path d="M93.17 82.41 L96.04 76.03" stroke="#454d3d" stroke-width="2.3" stroke-linecap="round" fill="none" /><path d="M93.17 82.41 L98.3 77.65" stroke="#454d3d" stroke-width="2.3" stroke-linecap="round" fill="none" /><path d="M93.17 82.41 L99.75 80.03" stroke="#454d3d" stroke-width="2.3" stroke-linecap="round" fill="none" /><circle cx="93.17" cy="82.41" r="4.4" fill="#6c765f" stroke="#1a1d16" stroke-width="1"/><circle cx="65.5" cy="64.5" r="11.2" fill="url(#zka)" stroke="#1a1d16" stroke-width="1.2"/><path d="M69.83 66.97 Q69.08 69.94 66.2 70.72 Q63.32 71.5 60.05 72.27 Q56.79 73.03 55.37 69.98 Q53.96 66.93 53.79 63.94 Q53.63 60.95 55.82 59.02 Q58.01 57.08 60.68 56.68 Q63.36 56.27 66.51 56.93 Q69.65 57.58 70.12 60.79 Q70.58 64 69.83 66.97 Z" fill="#2a241e" opacity=".95"/><circle cx="64.5" cy="58" r="2.4" fill="#454d3d"/><path d="M66.96 65.47 Q66.85 66.78 65.42 67.17 Q63.99 67.56 62.55 66.74 Q61.11 65.93 61.03 64.13 Q60.95 62.33 62.48 61.58 Q64.01 60.83 65.46 61.16 Q66.91 61.49 66.99 62.83 Q67.08 64.17 66.96 65.47 Z" fill="#5a0e0b"/></g></g><g transform="translate(256 0)"><path d="M60 55.5 L71 55.5" stroke="#272a30" stroke-width="11" stroke-linecap="round" fill="none" /><path d="M60 55.5 L71 55.5" stroke="#3c4048" stroke-width="8.5" stroke-linecap="round" fill="none" /><ellipse cx="74" cy="55.5" rx="7.2" ry="4.6" fill="#231e19" stroke="#110e0c" stroke-width="1"/><path d="M60 72.5 L53.95 72.5" stroke="#272a30" stroke-width="11" stroke-linecap="round" fill="none" /><path d="M60 72.5 L53.95 72.5" stroke="#3c4048" stroke-width="8.5" stroke-linecap="round" fill="none" /><ellipse cx="56.95" cy="72.5" rx="7.2" ry="4.6" fill="#231e19" stroke="#110e0c" stroke-width="1"/><g transform="rotate(6 62 64) translate(0 0)"><path d="M75.55 64 L75.29 68.07 L74.5 71.93 L73.47 75.61 L71.66 78.43 L70.32 81.91 L68.68 85.44 L65.96 86 L63.5 86.82 L61 87.65 L58.46 87.2 L56.24 85.11 L53.64 84.56 L51.84 81.61 L50.1 78.76 L47.84 76.26 L46.75 72.37 L46.24 68.2 L46.24 64 L46.43 59.86 L47.45 56.05 L47.78 51.69 L49.98 49.08 L51.73 46.17 L53.64 43.44 L56.24 42.89 L58.57 41.76 L61 41.31 L63.59 40.32 L65.9 42.26 L68.52 43 L70.9 44.98 L71.82 49.36 L72.85 52.97 L75.05 55.75 L76 59.74 Z" fill="url(#zsa)" stroke="#15130f" stroke-width="1.4"/><path d="M68.63 60.2 Q68.1 61.9 66.43 61.58 Q64.75 61.26 63.1 60.83 Q61.45 60.39 61.48 58.51 Q61.51 56.63 63.07 55.93 Q64.64 55.23 65.81 55.85 Q66.99 56.48 68.07 57.49 Q69.16 58.5 68.63 60.2 Z" fill="#454d3d" opacity=".9"/><path d="M56.09 77.47 Q55.26 78.64 53.93 79.17 Q52.6 79.7 51.2 78.86 Q49.79 78.02 50.4 76.58 Q51.01 75.14 51.77 73.87 Q52.54 72.59 53.75 73.44 Q54.97 74.3 55.95 75.29 Q56.93 76.29 56.09 77.47 Z" fill="#454d3d" opacity=".9"/><path d="M63.5 70.56 Q62.73 72.28 60.91 72.55 Q59.1 72.82 58.08 71.55 Q57.07 70.27 56.24 68.45 Q55.41 66.64 57.23 65.67 Q59.06 64.71 61.14 64.76 Q63.22 64.81 63.75 66.83 Q64.28 68.85 63.5 70.56 Z" fill="#454d3d" opacity=".9"/><ellipse cx="56.61" cy="66.19" rx="5.74" ry="6.37" fill="url(#zba)"/><ellipse cx="53.52" cy="48.74" rx="7.15" ry="5.49" fill="url(#zba)"/><ellipse cx="52.76" cy="58.77" rx="5.89" ry="6.75" fill="url(#zba)"/><ellipse cx="68.76" cy="69.2" rx="6.05" ry="6.68" fill="url(#zba)"/><path d="M60 43.5 L80.49 42.3" stroke="#141410" stroke-width="11.5" stroke-linecap="round" fill="none" /><path d="M60 43.5 L80.49 42.3" stroke="#5e5343" stroke-width="9.2" stroke-linecap="round" fill="none" /><path d="M60 43.5 L80.49 42.3" stroke="#3a3228" stroke-width="3" stroke-linecap="round" fill="none" opacity=".5"/><path d="M80.49 42.3 L98.37 46.62" stroke="#1a1d16" stroke-width="8.6" stroke-linecap="round" fill="none" /><path d="M80.49 42.3 L98.37 46.62" stroke="#6c765f" stroke-width="6.6" stroke-linecap="round" fill="none" /><path d="M80.49 42.3 L98.37 46.62" stroke="#2c2a1f" stroke-width="6.6" stroke-linecap="round" fill="none" opacity=".25"/><path d="M78.93 41.92 L98.37 46.62" stroke="#454d3d" stroke-width="2" stroke-linecap="round" fill="none" opacity=".5"/><path d="M98.37 46.62 L105.03 44.47" stroke="#454d3d" stroke-width="2.3" stroke-linecap="round" fill="none" /><path d="M98.37 46.62 L105.35 47.23" stroke="#454d3d" stroke-width="2.3" stroke-linecap="round" fill="none" /><path d="M98.37 46.62 L104.56 49.9" stroke="#454d3d" stroke-width="2.3" stroke-linecap="round" fill="none" /><circle cx="98.37" cy="46.62" r="4.4" fill="#6c765f" stroke="#1a1d16" stroke-width="1"/><circle cx="97.37" cy="47.62" r="2" fill="#4a0d0a" opacity=".8"/><path d="M60 84.5 L77.83 92.73" stroke="#141410" stroke-width="11.5" stroke-linecap="round" fill="none" /><path d="M60 84.5 L77.83 92.73" stroke="#5e5343" stroke-width="9.2" stroke-linecap="round" fill="none" /><path d="M60 84.5 L77.83 92.73" stroke="#3a3228" stroke-width="3" stroke-linecap="round" fill="none" opacity=".5"/><path d="M77.83 92.73 L92 81" stroke="#1a1d16" stroke-width="8.6" stroke-linecap="round" fill="none" /><path d="M77.83 92.73 L92 81" stroke="#6c765f" stroke-width="6.6" stroke-linecap="round" fill="none" /><path d="M77.83 92.73 L92 81" stroke="#2c2a1f" stroke-width="6.6" stroke-linecap="round" fill="none" opacity=".25"/><path d="M76.59 93.75 L92 81" stroke="#454d3d" stroke-width="2" stroke-linecap="round" fill="none" opacity=".5"/><path d="M92 81 L94.26 74.38" stroke="#454d3d" stroke-width="2.3" stroke-linecap="round" fill="none" /><path d="M92 81 L96.66 75.78" stroke="#454d3d" stroke-width="2.3" stroke-linecap="round" fill="none" /><path d="M92 81 L98.33 78.01" stroke="#454d3d" stroke-width="2.3" stroke-linecap="round" fill="none" /><circle cx="92" cy="81" r="4.4" fill="#6c765f" stroke="#1a1d16" stroke-width="1"/><circle cx="65.5" cy="64.5" r="11.2" fill="url(#zka)" stroke="#1a1d16" stroke-width="1.2"/><path d="M69.83 66.97 Q69.08 69.94 66.2 70.72 Q63.32 71.5 60.05 72.27 Q56.79 73.03 55.37 69.98 Q53.96 66.93 53.79 63.94 Q53.63 60.95 55.82 59.02 Q58.01 57.08 60.68 56.68 Q63.36 56.27 66.51 56.93 Q69.65 57.58 70.12 60.79 Q70.58 64 69.83 66.97 Z" fill="#2a241e" opacity=".95"/><circle cx="64.5" cy="58" r="2.4" fill="#454d3d"/><path d="M66.96 65.47 Q66.85 66.78 65.42 67.17 Q63.99 67.56 62.55 66.74 Q61.11 65.93 61.03 64.13 Q60.95 62.33 62.48 61.58 Q64.01 60.83 65.46 61.16 Q66.91 61.49 66.99 62.83 Q67.08 64.17 66.96 65.47 Z" fill="#5a0e0b"/></g></g><g transform="translate(384 0)"><path d="M60 55.5 L67.78 55.5" stroke="#272a30" stroke-width="11" stroke-linecap="round" fill="none" /><path d="M60 55.5 L67.78 55.5" stroke="#3c4048" stroke-width="8.5" stroke-linecap="round" fill="none" /><ellipse cx="70.78" cy="55.5" rx="7.2" ry="4.6" fill="#231e19" stroke="#110e0c" stroke-width="1"/><path d="M60 72.5 L55.72 73.35" stroke="#272a30" stroke-width="11" stroke-linecap="round" fill="none" /><path d="M60 72.5 L55.72 73.35" stroke="#3c4048" stroke-width="8.5" stroke-linecap="round" fill="none" /><ellipse cx="58.72" cy="73.35" rx="7.2" ry="4.6" fill="#231e19" stroke="#110e0c" stroke-width="1"/><g transform="rotate(4.24 62 64) translate(0 0)"><path d="M75.55 64 L75.29 68.07 L74.5 71.93 L73.47 75.61 L71.66 78.43 L70.32 81.91 L68.68 85.44 L65.96 86 L63.5 86.82 L61 87.65 L58.46 87.2 L56.24 85.11 L53.64 84.56 L51.84 81.61 L50.1 78.76 L47.84 76.26 L46.75 72.37 L46.24 68.2 L46.24 64 L46.43 59.86 L47.45 56.05 L47.78 51.69 L49.98 49.08 L51.73 46.17 L53.64 43.44 L56.24 42.89 L58.57 41.76 L61 41.31 L63.59 40.32 L65.9 42.26 L68.52 43 L70.9 44.98 L71.82 49.36 L72.85 52.97 L75.05 55.75 L76 59.74 Z" fill="url(#zsa)" stroke="#15130f" stroke-width="1.4"/><path d="M68.63 60.2 Q68.1 61.9 66.43 61.58 Q64.75 61.26 63.1 60.83 Q61.45 60.39 61.48 58.51 Q61.51 56.63 63.07 55.93 Q64.64 55.23 65.81 55.85 Q66.99 56.48 68.07 57.49 Q69.16 58.5 68.63 60.2 Z" fill="#454d3d" opacity=".9"/><path d="M56.09 77.47 Q55.26 78.64 53.93 79.17 Q52.6 79.7 51.2 78.86 Q49.79 78.02 50.4 76.58 Q51.01 75.14 51.77 73.87 Q52.54 72.59 53.75 73.44 Q54.97 74.3 55.95 75.29 Q56.93 76.29 56.09 77.47 Z" fill="#454d3d" opacity=".9"/><path d="M63.5 70.56 Q62.73 72.28 60.91 72.55 Q59.1 72.82 58.08 71.55 Q57.07 70.27 56.24 68.45 Q55.41 66.64 57.23 65.67 Q59.06 64.71 61.14 64.76 Q63.22 64.81 63.75 66.83 Q64.28 68.85 63.5 70.56 Z" fill="#454d3d" opacity=".9"/><ellipse cx="56.61" cy="66.19" rx="5.74" ry="6.37" fill="url(#zba)"/><ellipse cx="53.52" cy="48.74" rx="7.15" ry="5.49" fill="url(#zba)"/><ellipse cx="52.76" cy="58.77" rx="5.89" ry="6.75" fill="url(#zba)"/><ellipse cx="68.76" cy="69.2" rx="6.05" ry="6.68" fill="url(#zba)"/><path d="M60 43.5 L80.52 43.03" stroke="#141410" stroke-width="11.5" stroke-linecap="round" fill="none" /><path d="M60 43.5 L80.52 43.03" stroke="#5e5343" stroke-width="9.2" stroke-linecap="round" fill="none" /><path d="M60 43.5 L80.52 43.03" stroke="#3a3228" stroke-width="3" stroke-linecap="round" fill="none" opacity=".5"/><path d="M80.52 43.03 L98.24 47.99" stroke="#1a1d16" stroke-width="8.6" stroke-linecap="round" fill="none" /><path d="M80.52 43.03 L98.24 47.99" stroke="#6c765f" stroke-width="6.6" stroke-linecap="round" fill="none" /><path d="M80.52 43.03 L98.24 47.99" stroke="#2c2a1f" stroke-width="6.6" stroke-linecap="round" fill="none" opacity=".25"/><path d="M78.98 42.6 L98.24 47.99" stroke="#454d3d" stroke-width="2" stroke-linecap="round" fill="none" opacity=".5"/><path d="M98.24 47.99 L104.97 46.08" stroke="#454d3d" stroke-width="2.3" stroke-linecap="round" fill="none" /><path d="M98.24 47.99 L105.18 48.85" stroke="#454d3d" stroke-width="2.3" stroke-linecap="round" fill="none" /><path d="M98.24 47.99 L104.3 51.49" stroke="#454d3d" stroke-width="2.3" stroke-linecap="round" fill="none" /><circle cx="98.24" cy="47.99" r="4.4" fill="#6c765f" stroke="#1a1d16" stroke-width="1"/><circle cx="97.24" cy="48.99" r="2" fill="#4a0d0a" opacity=".8"/><path d="M60 84.5 L78.73 90.98" stroke="#141410" stroke-width="11.5" stroke-linecap="round" fill="none" /><path d="M60 84.5 L78.73 90.98" stroke="#5e5343" stroke-width="9.2" stroke-linecap="round" fill="none" /><path d="M60 84.5 L78.73 90.98" stroke="#3a3228" stroke-width="3" stroke-linecap="round" fill="none" opacity=".5"/><path d="M78.73 90.98 L93.17 79.59" stroke="#1a1d16" stroke-width="8.6" stroke-linecap="round" fill="none" /><path d="M78.73 90.98 L93.17 79.59" stroke="#6c765f" stroke-width="6.6" stroke-linecap="round" fill="none" /><path d="M78.73 90.98 L93.17 79.59" stroke="#2c2a1f" stroke-width="6.6" stroke-linecap="round" fill="none" opacity=".25"/><path d="M77.47 91.97 L93.17 79.59" stroke="#454d3d" stroke-width="2" stroke-linecap="round" fill="none" opacity=".5"/><path d="M93.17 79.59 L95.59 73.02" stroke="#454d3d" stroke-width="2.3" stroke-linecap="round" fill="none" /><path d="M93.17 79.59 L97.96 74.48" stroke="#454d3d" stroke-width="2.3" stroke-linecap="round" fill="none" /><path d="M93.17 79.59 L99.57 76.74" stroke="#454d3d" stroke-width="2.3" stroke-linecap="round" fill="none" /><circle cx="93.17" cy="79.59" r="4.4" fill="#6c765f" stroke="#1a1d16" stroke-width="1"/><circle cx="65.5" cy="64.5" r="11.2" fill="url(#zka)" stroke="#1a1d16" stroke-width="1.2"/><path d="M69.83 66.97 Q69.08 69.94 66.2 70.72 Q63.32 71.5 60.05 72.27 Q56.79 73.03 55.37 69.98 Q53.96 66.93 53.79 63.94 Q53.63 60.95 55.82 59.02 Q58.01 57.08 60.68 56.68 Q63.36 56.27 66.51 56.93 Q69.65 57.58 70.12 60.79 Q70.58 64 69.83 66.97 Z" fill="#2a241e" opacity=".95"/><circle cx="64.5" cy="58" r="2.4" fill="#454d3d"/><path d="M66.96 65.47 Q66.85 66.78 65.42 67.17 Q63.99 67.56 62.55 66.74 Q61.11 65.93 61.03 64.13 Q60.95 62.33 62.48 61.58 Q64.01 60.83 65.46 61.16 Q66.91 61.49 66.99 62.83 Q67.08 64.17 66.96 65.47 Z" fill="#5a0e0b"/></g></g><g transform="translate(512 0)"><path d="M60 55.5 L60 55.5" stroke="#272a30" stroke-width="11" stroke-linecap="round" fill="none" /><path d="M60 55.5 L60 55.5" stroke="#3c4048" stroke-width="8.5" stroke-linecap="round" fill="none" /><ellipse cx="63" cy="55.5" rx="7.2" ry="4.6" fill="#231e19" stroke="#110e0c" stroke-width="1"/><path d="M60 72.5 L60 73.7" stroke="#272a30" stroke-width="11" stroke-linecap="round" fill="none" /><path d="M60 72.5 L60 73.7" stroke="#3c4048" stroke-width="8.5" stroke-linecap="round" fill="none" /><ellipse cx="63" cy="73.7" rx="7.2" ry="4.6" fill="#231e19" stroke="#110e0c" stroke-width="1"/><g transform="rotate(0 62 64) translate(0 0)"><path d="M75.55 64 L75.29 68.07 L74.5 71.93 L73.47 75.61 L71.66 78.43 L70.32 81.91 L68.68 85.44 L65.96 86 L63.5 86.82 L61 87.65 L58.46 87.2 L56.24 85.11 L53.64 84.56 L51.84 81.61 L50.1 78.76 L47.84 76.26 L46.75 72.37 L46.24 68.2 L46.24 64 L46.43 59.86 L47.45 56.05 L47.78 51.69 L49.98 49.08 L51.73 46.17 L53.64 43.44 L56.24 42.89 L58.57 41.76 L61 41.31 L63.59 40.32 L65.9 42.26 L68.52 43 L70.9 44.98 L71.82 49.36 L72.85 52.97 L75.05 55.75 L76 59.74 Z" fill="url(#zsa)" stroke="#15130f" stroke-width="1.4"/><path d="M68.63 60.2 Q68.1 61.9 66.43 61.58 Q64.75 61.26 63.1 60.83 Q61.45 60.39 61.48 58.51 Q61.51 56.63 63.07 55.93 Q64.64 55.23 65.81 55.85 Q66.99 56.48 68.07 57.49 Q69.16 58.5 68.63 60.2 Z" fill="#454d3d" opacity=".9"/><path d="M56.09 77.47 Q55.26 78.64 53.93 79.17 Q52.6 79.7 51.2 78.86 Q49.79 78.02 50.4 76.58 Q51.01 75.14 51.77 73.87 Q52.54 72.59 53.75 73.44 Q54.97 74.3 55.95 75.29 Q56.93 76.29 56.09 77.47 Z" fill="#454d3d" opacity=".9"/><path d="M63.5 70.56 Q62.73 72.28 60.91 72.55 Q59.1 72.82 58.08 71.55 Q57.07 70.27 56.24 68.45 Q55.41 66.64 57.23 65.67 Q59.06 64.71 61.14 64.76 Q63.22 64.81 63.75 66.83 Q64.28 68.85 63.5 70.56 Z" fill="#454d3d" opacity=".9"/><ellipse cx="56.61" cy="66.19" rx="5.74" ry="6.37" fill="url(#zba)"/><ellipse cx="53.52" cy="48.74" rx="7.15" ry="5.49" fill="url(#zba)"/><ellipse cx="52.76" cy="58.77" rx="5.89" ry="6.75" fill="url(#zba)"/><ellipse cx="68.76" cy="69.2" rx="6.05" ry="6.68" fill="url(#zba)"/><path d="M60 43.5 L80.52 43.5" stroke="#141410" stroke-width="11.5" stroke-linecap="round" fill="none" /><path d="M60 43.5 L80.52 43.5" stroke="#5e5343" stroke-width="9.2" stroke-linecap="round" fill="none" /><path d="M60 43.5 L80.52 43.5" stroke="#3a3228" stroke-width="3" stroke-linecap="round" fill="none" opacity=".5"/><path d="M80.52 43.5 L98.12 48.88" stroke="#1a1d16" stroke-width="8.6" stroke-linecap="round" fill="none" /><path d="M80.52 43.5 L98.12 48.88" stroke="#6c765f" stroke-width="6.6" stroke-linecap="round" fill="none" /><path d="M80.52 43.5 L98.12 48.88" stroke="#2c2a1f" stroke-width="6.6" stroke-linecap="round" fill="none" opacity=".25"/><path d="M78.99 43.04 L98.12 48.88" stroke="#454d3d" stroke-width="2" stroke-linecap="round" fill="none" opacity=".5"/><path d="M98.12 48.88 L104.9 47.12" stroke="#454d3d" stroke-width="2.3" stroke-linecap="round" fill="none" /><path d="M98.12 48.88 L105.05 49.9" stroke="#454d3d" stroke-width="2.3" stroke-linecap="round" fill="none" /><path d="M98.12 48.88 L104.1 52.51" stroke="#454d3d" stroke-width="2.3" stroke-linecap="round" fill="none" /><circle cx="98.12" cy="48.88" r="4.4" fill="#6c765f" stroke="#1a1d16" stroke-width="1"/><circle cx="97.12" cy="49.88" r="2" fill="#4a0d0a" opacity=".8"/><path d="M60 84.5 L79.92 87.95" stroke="#141410" stroke-width="11.5" stroke-linecap="round" fill="none" /><path d="M60 84.5 L79.92 87.95" stroke="#5e5343" stroke-width="9.2" stroke-linecap="round" fill="none" /><path d="M60 84.5 L79.92 87.95" stroke="#3a3228" stroke-width="3" stroke-linecap="round" fill="none" opacity=".5"/><path d="M79.92 87.95 L96 79" stroke="#1a1d16" stroke-width="8.6" stroke-linecap="round" fill="none" /><path d="M79.92 87.95 L96 79" stroke="#6c765f" stroke-width="6.6" stroke-linecap="round" fill="none" /><path d="M79.92 87.95 L96 79" stroke="#2c2a1f" stroke-width="6.6" stroke-linecap="round" fill="none" opacity=".25"/><path d="M78.52 88.73 L96 79" stroke="#454d3d" stroke-width="2" stroke-linecap="round" fill="none" opacity=".5"/><path d="M96 79 L99.44 72.9" stroke="#454d3d" stroke-width="2.3" stroke-linecap="round" fill="none" /><path d="M96 79 L101.54 74.72" stroke="#454d3d" stroke-width="2.3" stroke-linecap="round" fill="none" /><path d="M96 79 L102.77 77.22" stroke="#454d3d" stroke-width="2.3" stroke-linecap="round" fill="none" /><circle cx="96" cy="79" r="4.4" fill="#6c765f" stroke="#1a1d16" stroke-width="1"/><circle cx="65.5" cy="64.5" r="11.2" fill="url(#zka)" stroke="#1a1d16" stroke-width="1.2"/><path d="M69.83 66.97 Q69.08 69.94 66.2 70.72 Q63.32 71.5 60.05 72.27 Q56.79 73.03 55.37 69.98 Q53.96 66.93 53.79 63.94 Q53.63 60.95 55.82 59.02 Q58.01 57.08 60.68 56.68 Q63.36 56.27 66.51 56.93 Q69.65 57.58 70.12 60.79 Q70.58 64 69.83 66.97 Z" fill="#2a241e" opacity=".95"/><circle cx="64.5" cy="58" r="2.4" fill="#454d3d"/><path d="M66.96 65.47 Q66.85 66.78 65.42 67.17 Q63.99 67.56 62.55 66.74 Q61.11 65.93 61.03 64.13 Q60.95 62.33 62.48 61.58 Q64.01 60.83 65.46 61.16 Q66.91 61.49 66.99 62.83 Q67.08 64.17 66.96 65.47 Z" fill="#5a0e0b"/></g></g><g transform="translate(640 0)"><path d="M60 55.5 L52.22 55.5" stroke="#272a30" stroke-width="11" stroke-linecap="round" fill="none" /><path d="M60 55.5 L52.22 55.5" stroke="#3c4048" stroke-width="8.5" stroke-linecap="round" fill="none" /><ellipse cx="55.22" cy="55.5" rx="7.2" ry="4.6" fill="#231e19" stroke="#110e0c" stroke-width="1"/><path d="M60 72.5 L64.28 73.35" stroke="#272a30" stroke-width="11" stroke-linecap="round" fill="none" /><path d="M60 72.5 L64.28 73.35" stroke="#3c4048" stroke-width="8.5" stroke-linecap="round" fill="none" /><ellipse cx="67.28" cy="73.35" rx="7.2" ry="4.6" fill="#231e19" stroke="#110e0c" stroke-width="1"/><g transform="rotate(-4.24 62 64) translate(0 0)"><path d="M75.55 64 L75.29 68.07 L74.5 71.93 L73.47 75.61 L71.66 78.43 L70.32 81.91 L68.68 85.44 L65.96 86 L63.5 86.82 L61 87.65 L58.46 87.2 L56.24 85.11 L53.64 84.56 L51.84 81.61 L50.1 78.76 L47.84 76.26 L46.75 72.37 L46.24 68.2 L46.24 64 L46.43 59.86 L47.45 56.05 L47.78 51.69 L49.98 49.08 L51.73 46.17 L53.64 43.44 L56.24 42.89 L58.57 41.76 L61 41.31 L63.59 40.32 L65.9 42.26 L68.52 43 L70.9 44.98 L71.82 49.36 L72.85 52.97 L75.05 55.75 L76 59.74 Z" fill="url(#zsa)" stroke="#15130f" stroke-width="1.4"/><path d="M68.63 60.2 Q68.1 61.9 66.43 61.58 Q64.75 61.26 63.1 60.83 Q61.45 60.39 61.48 58.51 Q61.51 56.63 63.07 55.93 Q64.64 55.23 65.81 55.85 Q66.99 56.48 68.07 57.49 Q69.16 58.5 68.63 60.2 Z" fill="#454d3d" opacity=".9"/><path d="M56.09 77.47 Q55.26 78.64 53.93 79.17 Q52.6 79.7 51.2 78.86 Q49.79 78.02 50.4 76.58 Q51.01 75.14 51.77 73.87 Q52.54 72.59 53.75 73.44 Q54.97 74.3 55.95 75.29 Q56.93 76.29 56.09 77.47 Z" fill="#454d3d" opacity=".9"/><path d="M63.5 70.56 Q62.73 72.28 60.91 72.55 Q59.1 72.82 58.08 71.55 Q57.07 70.27 56.24 68.45 Q55.41 66.64 57.23 65.67 Q59.06 64.71 61.14 64.76 Q63.22 64.81 63.75 66.83 Q64.28 68.85 63.5 70.56 Z" fill="#454d3d" opacity=".9"/><ellipse cx="56.61" cy="66.19" rx="5.74" ry="6.37" fill="url(#zba)"/><ellipse cx="53.52" cy="48.74" rx="7.15" ry="5.49" fill="url(#zba)"/><ellipse cx="52.76" cy="58.77" rx="5.89" ry="6.75" fill="url(#zba)"/><ellipse cx="68.76" cy="69.2" rx="6.05" ry="6.68" fill="url(#zba)"/><path d="M60 43.5 L79.9 39.83" stroke="#141410" stroke-width="11.5" stroke-linecap="round" fill="none" /><path d="M60 43.5 L79.9 39.83" stroke="#5e5343" stroke-width="9.2" stroke-linecap="round" fill="none" /><path d="M60 43.5 L79.9 39.83" stroke="#3a3228" stroke-width="3" stroke-linecap="round" fill="none" opacity=".5"/><path d="M79.9 39.83 L96.17 48.41" stroke="#1a1d16" stroke-width="8.6" stroke-linecap="round" fill="none" /><path d="M79.9 39.83 L96.17 48.41" stroke="#6c765f" stroke-width="6.6" stroke-linecap="round" fill="none" /><path d="M79.9 39.83 L96.17 48.41" stroke="#2c2a1f" stroke-width="6.6" stroke-linecap="round" fill="none" opacity=".25"/><path d="M78.48 39.09 L96.17 48.41" stroke="#454d3d" stroke-width="2" stroke-linecap="round" fill="none" opacity=".5"/><path d="M96.17 48.41 L103.16 47.96" stroke="#454d3d" stroke-width="2.3" stroke-linecap="round" fill="none" /><path d="M96.17 48.41 L102.78 50.72" stroke="#454d3d" stroke-width="2.3" stroke-linecap="round" fill="none" /><path d="M96.17 48.41 L101.36 53.11" stroke="#454d3d" stroke-width="2.3" stroke-linecap="round" fill="none" /><circle cx="96.17" cy="48.41" r="4.4" fill="#6c765f" stroke="#1a1d16" stroke-width="1"/><circle cx="95.17" cy="49.41" r="2" fill="#4a0d0a" opacity=".8"/><path d="M60 84.5 L80.52 84.79" stroke="#141410" stroke-width="11.5" stroke-linecap="round" fill="none" /><path d="M60 84.5 L80.52 84.79" stroke="#5e5343" stroke-width="9.2" stroke-linecap="round" fill="none" /><path d="M60 84.5 L80.52 84.79" stroke="#3a3228" stroke-width="3" stroke-linecap="round" fill="none" opacity=".5"/><path d="M80.52 84.79 L98.2 79.67" stroke="#1a1d16" stroke-width="8.6" stroke-linecap="round" fill="none" /><path d="M80.52 84.79 L98.2 79.67" stroke="#6c765f" stroke-width="6.6" stroke-linecap="round" fill="none" /><path d="M80.52 84.79 L98.2 79.67" stroke="#2c2a1f" stroke-width="6.6" stroke-linecap="round" fill="none" opacity=".25"/><path d="M78.99 85.23 L98.2 79.67" stroke="#454d3d" stroke-width="2" stroke-linecap="round" fill="none" opacity=".5"/><path d="M98.2 79.67 L102.91 74.49" stroke="#454d3d" stroke-width="2.3" stroke-linecap="round" fill="none" /><path d="M98.2 79.67 L104.55 76.73" stroke="#454d3d" stroke-width="2.3" stroke-linecap="round" fill="none" /><path d="M98.2 79.67 L105.19 79.44" stroke="#454d3d" stroke-width="2.3" stroke-linecap="round" fill="none" /><circle cx="98.2" cy="79.67" r="4.4" fill="#6c765f" stroke="#1a1d16" stroke-width="1"/><circle cx="65.5" cy="64.5" r="11.2" fill="url(#zka)" stroke="#1a1d16" stroke-width="1.2"/><path d="M69.83 66.97 Q69.08 69.94 66.2 70.72 Q63.32 71.5 60.05 72.27 Q56.79 73.03 55.37 69.98 Q53.96 66.93 53.79 63.94 Q53.63 60.95 55.82 59.02 Q58.01 57.08 60.68 56.68 Q63.36 56.27 66.51 56.93 Q69.65 57.58 70.12 60.79 Q70.58 64 69.83 66.97 Z" fill="#2a241e" opacity=".95"/><circle cx="64.5" cy="58" r="2.4" fill="#454d3d"/><path d="M66.96 65.47 Q66.85 66.78 65.42 67.17 Q63.99 67.56 62.55 66.74 Q61.11 65.93 61.03 64.13 Q60.95 62.33 62.48 61.58 Q64.01 60.83 65.46 61.16 Q66.91 61.49 66.99 62.83 Q67.08 64.17 66.96 65.47 Z" fill="#5a0e0b"/></g></g><g transform="translate(768 0)"><path d="M60 55.5 L49 55.5" stroke="#272a30" stroke-width="11" stroke-linecap="round" fill="none" /><path d="M60 55.5 L49 55.5" stroke="#3c4048" stroke-width="8.5" stroke-linecap="round" fill="none" /><ellipse cx="52" cy="55.5" rx="7.2" ry="4.6" fill="#231e19" stroke="#110e0c" stroke-width="1"/><path d="M60 72.5 L66.05 72.5" stroke="#272a30" stroke-width="11" stroke-linecap="round" fill="none" /><path d="M60 72.5 L66.05 72.5" stroke="#3c4048" stroke-width="8.5" stroke-linecap="round" fill="none" /><ellipse cx="69.05" cy="72.5" rx="7.2" ry="4.6" fill="#231e19" stroke="#110e0c" stroke-width="1"/><g transform="rotate(-6 62 64) translate(0 0)"><path d="M75.55 64 L75.29 68.07 L74.5 71.93 L73.47 75.61 L71.66 78.43 L70.32 81.91 L68.68 85.44 L65.96 86 L63.5 86.82 L61 87.65 L58.46 87.2 L56.24 85.11 L53.64 84.56 L51.84 81.61 L50.1 78.76 L47.84 76.26 L46.75 72.37 L46.24 68.2 L46.24 64 L46.43 59.86 L47.45 56.05 L47.78 51.69 L49.98 49.08 L51.73 46.17 L53.64 43.44 L56.24 42.89 L58.57 41.76 L61 41.31 L63.59 40.32 L65.9 42.26 L68.52 43 L70.9 44.98 L71.82 49.36 L72.85 52.97 L75.05 55.75 L76 59.74 Z" fill="url(#zsa)" stroke="#15130f" stroke-width="1.4"/><path d="M68.63 60.2 Q68.1 61.9 66.43 61.58 Q64.75 61.26 63.1 60.83 Q61.45 60.39 61.48 58.51 Q61.51 56.63 63.07 55.93 Q64.64 55.23 65.81 55.85 Q66.99 56.48 68.07 57.49 Q69.16 58.5 68.63 60.2 Z" fill="#454d3d" opacity=".9"/><path d="M56.09 77.47 Q55.26 78.64 53.93 79.17 Q52.6 79.7 51.2 78.86 Q49.79 78.02 50.4 76.58 Q51.01 75.14 51.77 73.87 Q52.54 72.59 53.75 73.44 Q54.97 74.3 55.95 75.29 Q56.93 76.29 56.09 77.47 Z" fill="#454d3d" opacity=".9"/><path d="M63.5 70.56 Q62.73 72.28 60.91 72.55 Q59.1 72.82 58.08 71.55 Q57.07 70.27 56.24 68.45 Q55.41 66.64 57.23 65.67 Q59.06 64.71 61.14 64.76 Q63.22 64.81 63.75 66.83 Q64.28 68.85 63.5 70.56 Z" fill="#454d3d" opacity=".9"/><ellipse cx="56.61" cy="66.19" rx="5.74" ry="6.37" fill="url(#zba)"/><ellipse cx="53.52" cy="48.74" rx="7.15" ry="5.49" fill="url(#zba)"/><ellipse cx="52.76" cy="58.77" rx="5.89" ry="6.75" fill="url(#zba)"/><ellipse cx="68.76" cy="69.2" rx="6.05" ry="6.68" fill="url(#zba)"/><path d="M60 43.5 L79.16 37.63" stroke="#141410" stroke-width="11.5" stroke-linecap="round" fill="none" /><path d="M60 43.5 L79.16 37.63" stroke="#5e5343" stroke-width="9.2" stroke-linecap="round" fill="none" /><path d="M60 43.5 L79.16 37.63" stroke="#3a3228" stroke-width="3" stroke-linecap="round" fill="none" opacity=".5"/><path d="M79.16 37.63 L95 47" stroke="#1a1d16" stroke-width="8.6" stroke-linecap="round" fill="none" /><path d="M79.16 37.63 L95 47" stroke="#6c765f" stroke-width="6.6" stroke-linecap="round" fill="none" /><path d="M79.16 37.63 L95 47" stroke="#2c2a1f" stroke-width="6.6" stroke-linecap="round" fill="none" opacity=".25"/><path d="M77.79 36.82 L95 47" stroke="#454d3d" stroke-width="2" stroke-linecap="round" fill="none" opacity=".5"/><path d="M95 47 L102 46.89" stroke="#454d3d" stroke-width="2.3" stroke-linecap="round" fill="none" /><path d="M95 47 L101.49 49.62" stroke="#454d3d" stroke-width="2.3" stroke-linecap="round" fill="none" /><path d="M95 47 L99.96 51.94" stroke="#454d3d" stroke-width="2.3" stroke-linecap="round" fill="none" /><circle cx="95" cy="47" r="4.4" fill="#6c765f" stroke="#1a1d16" stroke-width="1"/><circle cx="94" cy="48" r="2" fill="#4a0d0a" opacity=".8"/><path d="M60 84.5 L80.5 85.58" stroke="#141410" stroke-width="11.5" stroke-linecap="round" fill="none" /><path d="M60 84.5 L80.5 85.58" stroke="#5e5343" stroke-width="9.2" stroke-linecap="round" fill="none" /><path d="M60 84.5 L80.5 85.58" stroke="#3a3228" stroke-width="3" stroke-linecap="round" fill="none" opacity=".5"/><path d="M80.5 85.58 L98.35 81.14" stroke="#1a1d16" stroke-width="8.6" stroke-linecap="round" fill="none" /><path d="M80.5 85.58 L98.35 81.14" stroke="#6c765f" stroke-width="6.6" stroke-linecap="round" fill="none" /><path d="M80.5 85.58 L98.35 81.14" stroke="#2c2a1f" stroke-width="6.6" stroke-linecap="round" fill="none" opacity=".25"/><path d="M78.94 85.97 L98.35 81.14" stroke="#454d3d" stroke-width="2" stroke-linecap="round" fill="none" opacity=".5"/><path d="M98.35 81.14 L103.26 76.15" stroke="#454d3d" stroke-width="2.3" stroke-linecap="round" fill="none" /><path d="M98.35 81.14 L104.82 78.46" stroke="#454d3d" stroke-width="2.3" stroke-linecap="round" fill="none" /><path d="M98.35 81.14 L105.35 81.19" stroke="#454d3d" stroke-width="2.3" stroke-linecap="round" fill="none" /><circle cx="98.35" cy="81.14" r="4.4" fill="#6c765f" stroke="#1a1d16" stroke-width="1"/><circle cx="65.5" cy="64.5" r="11.2" fill="url(#zka)" stroke="#1a1d16" stroke-width="1.2"/><path d="M69.83 66.97 Q69.08 69.94 66.2 70.72 Q63.32 71.5 60.05 72.27 Q56.79 73.03 55.37 69.98 Q53.96 66.93 53.79 63.94 Q53.63 60.95 55.82 59.02 Q58.01 57.08 60.68 56.68 Q63.36 56.27 66.51 56.93 Q69.65 57.58 70.12 60.79 Q70.58 64 69.83 66.97 Z" fill="#2a241e" opacity=".95"/><circle cx="64.5" cy="58" r="2.4" fill="#454d3d"/><path d="M66.96 65.47 Q66.85 66.78 65.42 67.17 Q63.99 67.56 62.55 66.74 Q61.11 65.93 61.03 64.13 Q60.95 62.33 62.48 61.58 Q64.01 60.83 65.46 61.16 Q66.91 61.49 66.99 62.83 Q67.08 64.17 66.96 65.47 Z" fill="#5a0e0b"/></g></g><g transform="translate(896 0)"><path d="M60 55.5 L52.22 54.65" stroke="#272a30" stroke-width="11" stroke-linecap="round" fill="none" /><path d="M60 55.5 L52.22 54.65" stroke="#3c4048" stroke-width="8.5" stroke-linecap="round" fill="none" /><ellipse cx="55.22" cy="54.65" rx="7.2" ry="4.6" fill="#231e19" stroke="#110e0c" stroke-width="1"/><path d="M60 72.5 L64.28 72.5" stroke="#272a30" stroke-width="11" stroke-linecap="round" fill="none" /><path d="M60 72.5 L64.28 72.5" stroke="#3c4048" stroke-width="8.5" stroke-linecap="round" fill="none" /><ellipse cx="67.28" cy="72.5" rx="7.2" ry="4.6" fill="#231e19" stroke="#110e0c" stroke-width="1"/><g transform="rotate(-4.24 62 64) translate(0 0)"><path d="M75.55 64 L75.29 68.07 L74.5 71.93 L73.47 75.61 L71.66 78.43 L70.32 81.91 L68.68 85.44 L65.96 86 L63.5 86.82 L61 87.65 L58.46 87.2 L56.24 85.11 L53.64 84.56 L51.84 81.61 L50.1 78.76 L47.84 76.26 L46.75 72.37 L46.24 68.2 L46.24 64 L46.43 59.86 L47.45 56.05 L47.78 51.69 L49.98 49.08 L51.73 46.17 L53.64 43.44 L56.24 42.89 L58.57 41.76 L61 41.31 L63.59 40.32 L65.9 42.26 L68.52 43 L70.9 44.98 L71.82 49.36 L72.85 52.97 L75.05 55.75 L76 59.74 Z" fill="url(#zsa)" stroke="#15130f" stroke-width="1.4"/><path d="M68.63 60.2 Q68.1 61.9 66.43 61.58 Q64.75 61.26 63.1 60.83 Q61.45 60.39 61.48 58.51 Q61.51 56.63 63.07 55.93 Q64.64 55.23 65.81 55.85 Q66.99 56.48 68.07 57.49 Q69.16 58.5 68.63 60.2 Z" fill="#454d3d" opacity=".9"/><path d="M56.09 77.47 Q55.26 78.64 53.93 79.17 Q52.6 79.7 51.2 78.86 Q49.79 78.02 50.4 76.58 Q51.01 75.14 51.77 73.87 Q52.54 72.59 53.75 73.44 Q54.97 74.3 55.95 75.29 Q56.93 76.29 56.09 77.47 Z" fill="#454d3d" opacity=".9"/><path d="M63.5 70.56 Q62.73 72.28 60.91 72.55 Q59.1 72.82 58.08 71.55 Q57.07 70.27 56.24 68.45 Q55.41 66.64 57.23 65.67 Q59.06 64.71 61.14 64.76 Q63.22 64.81 63.75 66.83 Q64.28 68.85 63.5 70.56 Z" fill="#454d3d" opacity=".9"/><ellipse cx="56.61" cy="66.19" rx="5.74" ry="6.37" fill="url(#zba)"/><ellipse cx="53.52" cy="48.74" rx="7.15" ry="5.49" fill="url(#zba)"/><ellipse cx="52.76" cy="58.77" rx="5.89" ry="6.75" fill="url(#zba)"/><ellipse cx="68.76" cy="69.2" rx="6.05" ry="6.68" fill="url(#zba)"/><path d="M60 43.5 L79.42 37.97" stroke="#141410" stroke-width="11.5" stroke-linecap="round" fill="none" /><path d="M60 43.5 L79.42 37.97" stroke="#5e5343" stroke-width="9.2" stroke-linecap="round" fill="none" /><path d="M60 43.5 L79.42 37.97" stroke="#3a3228" stroke-width="3" stroke-linecap="round" fill="none" opacity=".5"/><path d="M79.42 37.97 L96.17 45.59" stroke="#1a1d16" stroke-width="8.6" stroke-linecap="round" fill="none" /><path d="M79.42 37.97 L96.17 45.59" stroke="#6c765f" stroke-width="6.6" stroke-linecap="round" fill="none" /><path d="M79.42 37.97 L96.17 45.59" stroke="#2c2a1f" stroke-width="6.6" stroke-linecap="round" fill="none" opacity=".25"/><path d="M77.96 37.31 L96.17 45.59" stroke="#454d3d" stroke-width="2" stroke-linecap="round" fill="none" opacity=".5"/><path d="M96.17 45.59 L103.12 44.72" stroke="#454d3d" stroke-width="2.3" stroke-linecap="round" fill="none" /><path d="M96.17 45.59 L102.91 47.5" stroke="#454d3d" stroke-width="2.3" stroke-linecap="round" fill="none" /><path d="M96.17 45.59 L101.63 49.97" stroke="#454d3d" stroke-width="2.3" stroke-linecap="round" fill="none" /><circle cx="96.17" cy="45.59" r="4.4" fill="#6c765f" stroke="#1a1d16" stroke-width="1"/><circle cx="95.17" cy="46.59" r="2" fill="#4a0d0a" opacity=".8"/><path d="M60 84.5 L80.45 86.27" stroke="#141410" stroke-width="11.5" stroke-linecap="round" fill="none" /><path d="M60 84.5 L80.45 86.27" stroke="#5e5343" stroke-width="9.2" stroke-linecap="round" fill="none" /><path d="M60 84.5 L80.45 86.27" stroke="#3a3228" stroke-width="3" stroke-linecap="round" fill="none" opacity=".5"/><path d="M80.45 86.27 L98.44 82.43" stroke="#1a1d16" stroke-width="8.6" stroke-linecap="round" fill="none" /><path d="M80.45 86.27 L98.44 82.43" stroke="#6c765f" stroke-width="6.6" stroke-linecap="round" fill="none" /><path d="M80.45 86.27 L98.44 82.43" stroke="#2c2a1f" stroke-width="6.6" stroke-linecap="round" fill="none" opacity=".25"/><path d="M78.88 86.6 L98.44 82.43" stroke="#454d3d" stroke-width="2" stroke-linecap="round" fill="none" opacity=".5"/><path d="M98.44 82.43 L103.52 77.61" stroke="#454d3d" stroke-width="2.3" stroke-linecap="round" fill="none" /><path d="M98.44 82.43 L105 79.97" stroke="#454d3d" stroke-width="2.3" stroke-linecap="round" fill="none" /><path d="M98.44 82.43 L105.44 82.72" stroke="#454d3d" stroke-width="2.3" stroke-linecap="round" fill="none" /><circle cx="98.44" cy="82.43" r="4.4" fill="#6c765f" stroke="#1a1d16" stroke-width="1"/><circle cx="65.5" cy="64.5" r="11.2" fill="url(#zka)" stroke="#1a1d16" stroke-width="1.2"/><path d="M69.83 66.97 Q69.08 69.94 66.2 70.72 Q63.32 71.5 60.05 72.27 Q56.79 73.03 55.37 69.98 Q53.96 66.93 53.79 63.94 Q53.63 60.95 55.82 59.02 Q58.01 57.08 60.68 56.68 Q63.36 56.27 66.51 56.93 Q69.65 57.58 70.12 60.79 Q70.58 64 69.83 66.97 Z" fill="#2a241e" opacity=".95"/><circle cx="64.5" cy="58" r="2.4" fill="#454d3d"/><path d="M66.96 65.47 Q66.85 66.78 65.42 67.17 Q63.99 67.56 62.55 66.74 Q61.11 65.93 61.03 64.13 Q60.95 62.33 62.48 61.58 Q64.01 60.83 65.46 61.16 Q66.91 61.49 66.99 62.83 Q67.08 64.17 66.96 65.47 Z" fill="#5a0e0b"/></g></g><g transform="translate(1024 0)"><path d="M60 55.5 L60 54.3" stroke="#272a30" stroke-width="11" stroke-linecap="round" fill="none" /><path d="M60 55.5 L60 54.3" stroke="#3c4048" stroke-width="8.5" stroke-linecap="round" fill="none" /><ellipse cx="63" cy="54.3" rx="7.2" ry="4.6" fill="#231e19" stroke="#110e0c" stroke-width="1"/><path d="M60 72.5 L60 72.5" stroke="#272a30" stroke-width="11" stroke-linecap="round" fill="none" /><path d="M60 72.5 L60 72.5" stroke="#3c4048" stroke-width="8.5" stroke-linecap="round" fill="none" /><ellipse cx="63" cy="72.5" rx="7.2" ry="4.6" fill="#231e19" stroke="#110e0c" stroke-width="1"/><g transform="rotate(0 62 64) translate(-3 0)"><path d="M75.55 64 L75.29 68.07 L74.5 71.93 L73.47 75.61 L71.66 78.43 L70.32 81.91 L68.68 85.44 L65.96 86 L63.5 86.82 L61 87.65 L58.46 87.2 L56.24 85.11 L53.64 84.56 L51.84 81.61 L50.1 78.76 L47.84 76.26 L46.75 72.37 L46.24 68.2 L46.24 64 L46.43 59.86 L47.45 56.05 L47.78 51.69 L49.98 49.08 L51.73 46.17 L53.64 43.44 L56.24 42.89 L58.57 41.76 L61 41.31 L63.59 40.32 L65.9 42.26 L68.52 43 L70.9 44.98 L71.82 49.36 L72.85 52.97 L75.05 55.75 L76 59.74 Z" fill="url(#zsa)" stroke="#15130f" stroke-width="1.4"/><path d="M68.63 60.2 Q68.1 61.9 66.43 61.58 Q64.75 61.26 63.1 60.83 Q61.45 60.39 61.48 58.51 Q61.51 56.63 63.07 55.93 Q64.64 55.23 65.81 55.85 Q66.99 56.48 68.07 57.49 Q69.16 58.5 68.63 60.2 Z" fill="#454d3d" opacity=".9"/><path d="M56.09 77.47 Q55.26 78.64 53.93 79.17 Q52.6 79.7 51.2 78.86 Q49.79 78.02 50.4 76.58 Q51.01 75.14 51.77 73.87 Q52.54 72.59 53.75 73.44 Q54.97 74.3 55.95 75.29 Q56.93 76.29 56.09 77.47 Z" fill="#454d3d" opacity=".9"/><path d="M63.5 70.56 Q62.73 72.28 60.91 72.55 Q59.1 72.82 58.08 71.55 Q57.07 70.27 56.24 68.45 Q55.41 66.64 57.23 65.67 Q59.06 64.71 61.14 64.76 Q63.22 64.81 63.75 66.83 Q64.28 68.85 63.5 70.56 Z" fill="#454d3d" opacity=".9"/><ellipse cx="56.61" cy="66.19" rx="5.74" ry="6.37" fill="url(#zba)"/><ellipse cx="53.52" cy="48.74" rx="7.15" ry="5.49" fill="url(#zba)"/><ellipse cx="52.76" cy="58.77" rx="5.89" ry="6.75" fill="url(#zba)"/><ellipse cx="68.76" cy="69.2" rx="6.05" ry="6.68" fill="url(#zba)"/><path d="M60 43.5 L75.03 31.3" stroke="#141410" stroke-width="11.5" stroke-linecap="round" fill="none" /><path d="M60 43.5 L75.03 31.3" stroke="#5e5343" stroke-width="9.2" stroke-linecap="round" fill="none" /><path d="M60 43.5 L75.03 31.3" stroke="#3a3228" stroke-width="3" stroke-linecap="round" fill="none" opacity=".5"/><path d="M75.03 31.3 L90 42" stroke="#1a1d16" stroke-width="8.6" stroke-linecap="round" fill="none" /><path d="M75.03 31.3 L90 42" stroke="#6c765f" stroke-width="6.6" stroke-linecap="round" fill="none" /><path d="M75.03 31.3 L90 42" stroke="#2c2a1f" stroke-width="6.6" stroke-linecap="round" fill="none" opacity=".25"/><path d="M73.73 30.37 L90 42" stroke="#454d3d" stroke-width="2" stroke-linecap="round" fill="none" opacity=".5"/><path d="M90 42 L96.98 42.49" stroke="#454d3d" stroke-width="2.3" stroke-linecap="round" fill="none" /><path d="M90 42 L96.24 45.17" stroke="#454d3d" stroke-width="2.3" stroke-linecap="round" fill="none" /><path d="M90 42 L94.51 47.35" stroke="#454d3d" stroke-width="2.3" stroke-linecap="round" fill="none" /><circle cx="90" cy="42" r="4.4" fill="#6c765f" stroke="#1a1d16" stroke-width="1"/><circle cx="89" cy="43" r="2" fill="#4a0d0a" opacity=".8"/><path d="M60 84.5 L73.81 97.72" stroke="#141410" stroke-width="11.5" stroke-linecap="round" fill="none" /><path d="M60 84.5 L73.81 97.72" stroke="#5e5343" stroke-width="9.2" stroke-linecap="round" fill="none" /><path d="M60 84.5 L73.81 97.72" stroke="#3a3228" stroke-width="3" stroke-linecap="round" fill="none" opacity=".5"/><path d="M73.81 97.72 L88 86" stroke="#1a1d16" stroke-width="8.6" stroke-linecap="round" fill="none" /><path d="M73.81 97.72 L88 86" stroke="#6c765f" stroke-width="6.6" stroke-linecap="round" fill="none" /><path d="M73.81 97.72 L88 86" stroke="#2c2a1f" stroke-width="6.6" stroke-linecap="round" fill="none" opacity=".25"/><path d="M72.58 98.74 L88 86" stroke="#454d3d" stroke-width="2" stroke-linecap="round" fill="none" opacity=".5"/><path d="M88 86 L90.27 79.38" stroke="#454d3d" stroke-width="2.3" stroke-linecap="round" fill="none" /><path d="M88 86 L92.67 80.79" stroke="#454d3d" stroke-width="2.3" stroke-linecap="round" fill="none" /><path d="M88 86 L94.33 83.02" stroke="#454d3d" stroke-width="2.3" stroke-linecap="round" fill="none" /><circle cx="88" cy="86" r="4.4" fill="#6c765f" stroke="#1a1d16" stroke-width="1"/><circle cx="64" cy="64.5" r="11.2" fill="url(#zka)" stroke="#1a1d16" stroke-width="1.2"/><path d="M68.33 66.97 Q67.58 69.94 64.7 70.72 Q61.82 71.5 58.55 72.27 Q55.29 73.03 53.87 69.98 Q52.46 66.93 52.29 63.94 Q52.13 60.95 54.32 59.02 Q56.51 57.08 59.18 56.68 Q61.86 56.27 65.01 56.93 Q68.15 57.58 68.62 60.79 Q69.08 64 68.33 66.97 Z" fill="#2a241e" opacity=".95"/><circle cx="63" cy="58" r="2.4" fill="#454d3d"/><path d="M65.46 65.47 Q65.35 66.78 63.92 67.17 Q62.49 67.56 61.05 66.74 Q59.61 65.93 59.53 64.13 Q59.45 62.33 60.98 61.58 Q62.51 60.83 63.96 61.16 Q65.41 61.49 65.49 62.83 Q65.58 64.17 65.46 65.47 Z" fill="#5a0e0b"/></g></g><g transform="translate(1152 0)"><path d="M60 55.5 L60 54.3" stroke="#272a30" stroke-width="11" stroke-linecap="round" fill="none" /><path d="M60 55.5 L60 54.3" stroke="#3c4048" stroke-width="8.5" stroke-linecap="round" fill="none" /><ellipse cx="63" cy="54.3" rx="7.2" ry="4.6" fill="#231e19" stroke="#110e0c" stroke-width="1"/><path d="M60 72.5 L60 72.5" stroke="#272a30" stroke-width="11" stroke-linecap="round" fill="none" /><path d="M60 72.5 L60 72.5" stroke="#3c4048" stroke-width="8.5" stroke-linecap="round" fill="none" /><ellipse cx="63" cy="72.5" rx="7.2" ry="4.6" fill="#231e19" stroke="#110e0c" stroke-width="1"/><g transform="rotate(0 62 64) translate(-5 0)"><path d="M75.55 64 L75.29 68.07 L74.5 71.93 L73.47 75.61 L71.66 78.43 L70.32 81.91 L68.68 85.44 L65.96 86 L63.5 86.82 L61 87.65 L58.46 87.2 L56.24 85.11 L53.64 84.56 L51.84 81.61 L50.1 78.76 L47.84 76.26 L46.75 72.37 L46.24 68.2 L46.24 64 L46.43 59.86 L47.45 56.05 L47.78 51.69 L49.98 49.08 L51.73 46.17 L53.64 43.44 L56.24 42.89 L58.57 41.76 L61 41.31 L63.59 40.32 L65.9 42.26 L68.52 43 L70.9 44.98 L71.82 49.36 L72.85 52.97 L75.05 55.75 L76 59.74 Z" fill="url(#zsa)" stroke="#15130f" stroke-width="1.4"/><path d="M68.63 60.2 Q68.1 61.9 66.43 61.58 Q64.75 61.26 63.1 60.83 Q61.45 60.39 61.48 58.51 Q61.51 56.63 63.07 55.93 Q64.64 55.23 65.81 55.85 Q66.99 56.48 68.07 57.49 Q69.16 58.5 68.63 60.2 Z" fill="#454d3d" opacity=".9"/><path d="M56.09 77.47 Q55.26 78.64 53.93 79.17 Q52.6 79.7 51.2 78.86 Q49.79 78.02 50.4 76.58 Q51.01 75.14 51.77 73.87 Q52.54 72.59 53.75 73.44 Q54.97 74.3 55.95 75.29 Q56.93 76.29 56.09 77.47 Z" fill="#454d3d" opacity=".9"/><path d="M63.5 70.56 Q62.73 72.28 60.91 72.55 Q59.1 72.82 58.08 71.55 Q57.07 70.27 56.24 68.45 Q55.41 66.64 57.23 65.67 Q59.06 64.71 61.14 64.76 Q63.22 64.81 63.75 66.83 Q64.28 68.85 63.5 70.56 Z" fill="#454d3d" opacity=".9"/><ellipse cx="56.61" cy="66.19" rx="5.74" ry="6.37" fill="url(#zba)"/><ellipse cx="53.52" cy="48.74" rx="7.15" ry="5.49" fill="url(#zba)"/><ellipse cx="52.76" cy="58.77" rx="5.89" ry="6.75" fill="url(#zba)"/><ellipse cx="68.76" cy="69.2" rx="6.05" ry="6.68" fill="url(#zba)"/><path d="M60 43.5 L70.2 27.83" stroke="#141410" stroke-width="11.5" stroke-linecap="round" fill="none" /><path d="M60 43.5 L70.2 27.83" stroke="#5e5343" stroke-width="9.2" stroke-linecap="round" fill="none" /><path d="M60 43.5 L70.2 27.83" stroke="#3a3228" stroke-width="3" stroke-linecap="round" fill="none" opacity=".5"/><path d="M70.2 27.83 L84 40" stroke="#1a1d16" stroke-width="8.6" stroke-linecap="round" fill="none" /><path d="M70.2 27.83 L84 40" stroke="#6c765f" stroke-width="6.6" stroke-linecap="round" fill="none" /><path d="M70.2 27.83 L84 40" stroke="#2c2a1f" stroke-width="6.6" stroke-linecap="round" fill="none" opacity=".25"/><path d="M69 26.77 L84 40" stroke="#454d3d" stroke-width="2" stroke-linecap="round" fill="none" opacity=".5"/><path d="M84 40 L90.9 41.2" stroke="#454d3d" stroke-width="2.3" stroke-linecap="round" fill="none" /><path d="M84 40 L89.88 43.79" stroke="#454d3d" stroke-width="2.3" stroke-linecap="round" fill="none" /><path d="M84 40 L87.94 45.79" stroke="#454d3d" stroke-width="2.3" stroke-linecap="round" fill="none" /><circle cx="84" cy="40" r="4.4" fill="#6c765f" stroke="#1a1d16" stroke-width="1"/><circle cx="83" cy="41" r="2" fill="#4a0d0a" opacity=".8"/><path d="M60 84.5 L68.77 100.79" stroke="#141410" stroke-width="11.5" stroke-linecap="round" fill="none" /><path d="M60 84.5 L68.77 100.79" stroke="#5e5343" stroke-width="9.2" stroke-linecap="round" fill="none" /><path d="M60 84.5 L68.77 100.79" stroke="#3a3228" stroke-width="3" stroke-linecap="round" fill="none" opacity=".5"/><path d="M68.77 100.79 L82 88" stroke="#1a1d16" stroke-width="8.6" stroke-linecap="round" fill="none" /><path d="M68.77 100.79 L82 88" stroke="#6c765f" stroke-width="6.6" stroke-linecap="round" fill="none" /><path d="M68.77 100.79 L82 88" stroke="#2c2a1f" stroke-width="6.6" stroke-linecap="round" fill="none" opacity=".25"/><path d="M67.62 101.9 L82 88" stroke="#454d3d" stroke-width="2" stroke-linecap="round" fill="none" opacity=".5"/><path d="M82 88 L83.75 81.22" stroke="#454d3d" stroke-width="2.3" stroke-linecap="round" fill="none" /><path d="M82 88 L86.25 82.44" stroke="#454d3d" stroke-width="2.3" stroke-linecap="round" fill="none" /><path d="M82 88 L88.08 84.53" stroke="#454d3d" stroke-width="2.3" stroke-linecap="round" fill="none" /><circle cx="82" cy="88" r="4.4" fill="#6c765f" stroke="#1a1d16" stroke-width="1"/><circle cx="63" cy="64.5" r="11.2" fill="url(#zka)" stroke="#1a1d16" stroke-width="1.2"/><path d="M67.33 66.97 Q66.58 69.94 63.7 70.72 Q60.82 71.5 57.55 72.27 Q54.29 73.03 52.87 69.98 Q51.46 66.93 51.29 63.94 Q51.13 60.95 53.32 59.02 Q55.51 57.08 58.18 56.68 Q60.86 56.27 64.01 56.93 Q67.15 57.58 67.62 60.79 Q68.08 64 67.33 66.97 Z" fill="#2a241e" opacity=".95"/><circle cx="62" cy="58" r="2.4" fill="#454d3d"/><path d="M64.46 65.47 Q64.35 66.78 62.92 67.17 Q61.49 67.56 60.05 66.74 Q58.61 65.93 58.53 64.13 Q58.45 62.33 59.98 61.58 Q61.51 60.83 62.96 61.16 Q64.41 61.49 64.49 62.83 Q64.58 64.17 64.46 65.47 Z" fill="#5a0e0b"/></g></g><g transform="translate(1280 0)"><path d="M60 55.5 L60 54.3" stroke="#272a30" stroke-width="11" stroke-linecap="round" fill="none" /><path d="M60 55.5 L60 54.3" stroke="#3c4048" stroke-width="8.5" stroke-linecap="round" fill="none" /><ellipse cx="63" cy="54.3" rx="7.2" ry="4.6" fill="#231e19" stroke="#110e0c" stroke-width="1"/><path d="M60 72.5 L60 72.5" stroke="#272a30" stroke-width="11" stroke-linecap="round" fill="none" /><path d="M60 72.5 L60 72.5" stroke="#3c4048" stroke-width="8.5" stroke-linecap="round" fill="none" /><ellipse cx="63" cy="72.5" rx="7.2" ry="4.6" fill="#231e19" stroke="#110e0c" stroke-width="1"/><g transform="rotate(0 62 64) translate(5 0)"><path d="M75.55 64 L75.29 68.07 L74.5 71.93 L73.47 75.61 L71.66 78.43 L70.32 81.91 L68.68 85.44 L65.96 86 L63.5 86.82 L61 87.65 L58.46 87.2 L56.24 85.11 L53.64 84.56 L51.84 81.61 L50.1 78.76 L47.84 76.26 L46.75 72.37 L46.24 68.2 L46.24 64 L46.43 59.86 L47.45 56.05 L47.78 51.69 L49.98 49.08 L51.73 46.17 L53.64 43.44 L56.24 42.89 L58.57 41.76 L61 41.31 L63.59 40.32 L65.9 42.26 L68.52 43 L70.9 44.98 L71.82 49.36 L72.85 52.97 L75.05 55.75 L76 59.74 Z" fill="url(#zsa)" stroke="#15130f" stroke-width="1.4"/><path d="M68.63 60.2 Q68.1 61.9 66.43 61.58 Q64.75 61.26 63.1 60.83 Q61.45 60.39 61.48 58.51 Q61.51 56.63 63.07 55.93 Q64.64 55.23 65.81 55.85 Q66.99 56.48 68.07 57.49 Q69.16 58.5 68.63 60.2 Z" fill="#454d3d" opacity=".9"/><path d="M56.09 77.47 Q55.26 78.64 53.93 79.17 Q52.6 79.7 51.2 78.86 Q49.79 78.02 50.4 76.58 Q51.01 75.14 51.77 73.87 Q52.54 72.59 53.75 73.44 Q54.97 74.3 55.95 75.29 Q56.93 76.29 56.09 77.47 Z" fill="#454d3d" opacity=".9"/><path d="M63.5 70.56 Q62.73 72.28 60.91 72.55 Q59.1 72.82 58.08 71.55 Q57.07 70.27 56.24 68.45 Q55.41 66.64 57.23 65.67 Q59.06 64.71 61.14 64.76 Q63.22 64.81 63.75 66.83 Q64.28 68.85 63.5 70.56 Z" fill="#454d3d" opacity=".9"/><ellipse cx="56.61" cy="66.19" rx="5.74" ry="6.37" fill="url(#zba)"/><ellipse cx="53.52" cy="48.74" rx="7.15" ry="5.49" fill="url(#zba)"/><ellipse cx="52.76" cy="58.77" rx="5.89" ry="6.75" fill="url(#zba)"/><ellipse cx="68.76" cy="69.2" rx="6.05" ry="6.68" fill="url(#zba)"/><path d="M60 43.5 L80.47 45.01" stroke="#141410" stroke-width="11.5" stroke-linecap="round" fill="none" /><path d="M60 43.5 L80.47 45.01" stroke="#5e5343" stroke-width="9.2" stroke-linecap="round" fill="none" /><path d="M60 43.5 L80.47 45.01" stroke="#3a3228" stroke-width="3" stroke-linecap="round" fill="none" opacity=".5"/><path d="M80.47 45.01 L97.62 51.66" stroke="#1a1d16" stroke-width="8.6" stroke-linecap="round" fill="none" /><path d="M80.47 45.01 L97.62 51.66" stroke="#6c765f" stroke-width="6.6" stroke-linecap="round" fill="none" /><path d="M80.47 45.01 L97.62 51.66" stroke="#2c2a1f" stroke-width="6.6" stroke-linecap="round" fill="none" opacity=".25"/><path d="M78.98 44.43 L97.62 51.66" stroke="#454d3d" stroke-width="2" stroke-linecap="round" fill="none" opacity=".5"/><path d="M97.62 51.66 L104.51 50.41" stroke="#454d3d" stroke-width="2.3" stroke-linecap="round" fill="none" /><path d="M97.62 51.66 L104.46 53.19" stroke="#454d3d" stroke-width="2.3" stroke-linecap="round" fill="none" /><path d="M97.62 51.66 L103.32 55.73" stroke="#454d3d" stroke-width="2.3" stroke-linecap="round" fill="none" /><circle cx="97.62" cy="51.66" r="4.4" fill="#6c765f" stroke="#1a1d16" stroke-width="1"/><circle cx="96.62" cy="52.66" r="2" fill="#4a0d0a" opacity=".8"/><path d="M60 84.5 L80.46 82.91" stroke="#141410" stroke-width="11.5" stroke-linecap="round" fill="none" /><path d="M60 84.5 L80.46 82.91" stroke="#5e5343" stroke-width="9.2" stroke-linecap="round" fill="none" /><path d="M60 84.5 L80.46 82.91" stroke="#3a3228" stroke-width="3" stroke-linecap="round" fill="none" opacity=".5"/><path d="M80.46 82.91 L97.59 76.19" stroke="#1a1d16" stroke-width="8.6" stroke-linecap="round" fill="none" /><path d="M80.46 82.91 L97.59 76.19" stroke="#6c765f" stroke-width="6.6" stroke-linecap="round" fill="none" /><path d="M80.46 82.91 L97.59 76.19" stroke="#2c2a1f" stroke-width="6.6" stroke-linecap="round" fill="none" opacity=".25"/><path d="M78.97 83.49 L97.59 76.19" stroke="#454d3d" stroke-width="2" stroke-linecap="round" fill="none" opacity=".5"/><path d="M97.59 76.19 L101.81 70.6" stroke="#454d3d" stroke-width="2.3" stroke-linecap="round" fill="none" /><path d="M97.59 76.19 L103.65 72.68" stroke="#454d3d" stroke-width="2.3" stroke-linecap="round" fill="none" /><path d="M97.59 76.19 L104.54 75.32" stroke="#454d3d" stroke-width="2.3" stroke-linecap="round" fill="none" /><circle cx="97.59" cy="76.19" r="4.4" fill="#6c765f" stroke="#1a1d16" stroke-width="1"/><circle cx="69" cy="64.5" r="11.2" fill="url(#zka)" stroke="#1a1d16" stroke-width="1.2"/><path d="M73.33 66.97 Q72.58 69.94 69.7 70.72 Q66.82 71.5 63.55 72.27 Q60.29 73.03 58.87 69.98 Q57.46 66.93 57.29 63.94 Q57.13 60.95 59.32 59.02 Q61.51 57.08 64.18 56.68 Q66.86 56.27 70.01 56.93 Q73.15 57.58 73.62 60.79 Q74.08 64 73.33 66.97 Z" fill="#2a241e" opacity=".95"/><circle cx="68" cy="58" r="2.4" fill="#454d3d"/><path d="M70.46 65.47 Q70.35 66.78 68.92 67.17 Q67.49 67.56 66.05 66.74 Q64.61 65.93 64.53 64.13 Q64.45 62.33 65.98 61.58 Q67.51 60.83 68.96 61.16 Q70.41 61.49 70.49 62.83 Q70.58 64.17 70.46 65.47 Z" fill="#5a0e0b"/></g></g><g transform="translate(1408 0)"><path d="M60 55.5 L60 54.3" stroke="#272a30" stroke-width="11" stroke-linecap="round" fill="none" /><path d="M60 55.5 L60 54.3" stroke="#3c4048" stroke-width="8.5" stroke-linecap="round" fill="none" /><ellipse cx="63" cy="54.3" rx="7.2" ry="4.6" fill="#231e19" stroke="#110e0c" stroke-width="1"/><path d="M60 72.5 L60 72.5" stroke="#272a30" stroke-width="11" stroke-linecap="round" fill="none" /><path d="M60 72.5 L60 72.5" stroke="#3c4048" stroke-width="8.5" stroke-linecap="round" fill="none" /><ellipse cx="63" cy="72.5" rx="7.2" ry="4.6" fill="#231e19" stroke="#110e0c" stroke-width="1"/><g transform="rotate(0 62 64) translate(4 0)"><path d="M75.55 64 L75.29 68.07 L74.5 71.93 L73.47 75.61 L71.66 78.43 L70.32 81.91 L68.68 85.44 L65.96 86 L63.5 86.82 L61 87.65 L58.46 87.2 L56.24 85.11 L53.64 84.56 L51.84 81.61 L50.1 78.76 L47.84 76.26 L46.75 72.37 L46.24 68.2 L46.24 64 L46.43 59.86 L47.45 56.05 L47.78 51.69 L49.98 49.08 L51.73 46.17 L53.64 43.44 L56.24 42.89 L58.57 41.76 L61 41.31 L63.59 40.32 L65.9 42.26 L68.52 43 L70.9 44.98 L71.82 49.36 L72.85 52.97 L75.05 55.75 L76 59.74 Z" fill="url(#zsa)" stroke="#15130f" stroke-width="1.4"/><path d="M68.63 60.2 Q68.1 61.9 66.43 61.58 Q64.75 61.26 63.1 60.83 Q61.45 60.39 61.48 58.51 Q61.51 56.63 63.07 55.93 Q64.64 55.23 65.81 55.85 Q66.99 56.48 68.07 57.49 Q69.16 58.5 68.63 60.2 Z" fill="#454d3d" opacity=".9"/><path d="M56.09 77.47 Q55.26 78.64 53.93 79.17 Q52.6 79.7 51.2 78.86 Q49.79 78.02 50.4 76.58 Q51.01 75.14 51.77 73.87 Q52.54 72.59 53.75 73.44 Q54.97 74.3 55.95 75.29 Q56.93 76.29 56.09 77.47 Z" fill="#454d3d" opacity=".9"/><path d="M63.5 70.56 Q62.73 72.28 60.91 72.55 Q59.1 72.82 58.08 71.55 Q57.07 70.27 56.24 68.45 Q55.41 66.64 57.23 65.67 Q59.06 64.71 61.14 64.76 Q63.22 64.81 63.75 66.83 Q64.28 68.85 63.5 70.56 Z" fill="#454d3d" opacity=".9"/><ellipse cx="56.61" cy="66.19" rx="5.74" ry="6.37" fill="url(#zba)"/><ellipse cx="53.52" cy="48.74" rx="7.15" ry="5.49" fill="url(#zba)"/><ellipse cx="52.76" cy="58.77" rx="5.89" ry="6.75" fill="url(#zba)"/><ellipse cx="68.76" cy="69.2" rx="6.05" ry="6.68" fill="url(#zba)"/><path d="M60 43.5 L80.37 46.03" stroke="#141410" stroke-width="11.5" stroke-linecap="round" fill="none" /><path d="M60 43.5 L80.37 46.03" stroke="#5e5343" stroke-width="9.2" stroke-linecap="round" fill="none" /><path d="M60 43.5 L80.37 46.03" stroke="#3a3228" stroke-width="3" stroke-linecap="round" fill="none" opacity=".5"/><path d="M80.37 46.03 L97.17 53.54" stroke="#1a1d16" stroke-width="8.6" stroke-linecap="round" fill="none" /><path d="M80.37 46.03 L97.17 53.54" stroke="#6c765f" stroke-width="6.6" stroke-linecap="round" fill="none" /><path d="M80.37 46.03 L97.17 53.54" stroke="#2c2a1f" stroke-width="6.6" stroke-linecap="round" fill="none" opacity=".25"/><path d="M78.91 45.38 L97.17 53.54" stroke="#454d3d" stroke-width="2" stroke-linecap="round" fill="none" opacity=".5"/><path d="M97.17 53.54 L104.11 52.63" stroke="#454d3d" stroke-width="2.3" stroke-linecap="round" fill="none" /><path d="M97.17 53.54 L103.92 55.4" stroke="#454d3d" stroke-width="2.3" stroke-linecap="round" fill="none" /><path d="M97.17 53.54 L102.66 57.88" stroke="#454d3d" stroke-width="2.3" stroke-linecap="round" fill="none" /><circle cx="97.17" cy="53.54" r="4.4" fill="#6c765f" stroke="#1a1d16" stroke-width="1"/><circle cx="96.17" cy="54.54" r="2" fill="#4a0d0a" opacity=".8"/><path d="M60 84.5 L80.34 81.75" stroke="#141410" stroke-width="11.5" stroke-linecap="round" fill="none" /><path d="M60 84.5 L80.34 81.75" stroke="#5e5343" stroke-width="9.2" stroke-linecap="round" fill="none" /><path d="M60 84.5 L80.34 81.75" stroke="#3a3228" stroke-width="3" stroke-linecap="round" fill="none" opacity=".5"/><path d="M80.34 81.75 L97.06 74.08" stroke="#1a1d16" stroke-width="8.6" stroke-linecap="round" fill="none" /><path d="M80.34 81.75 L97.06 74.08" stroke="#6c765f" stroke-width="6.6" stroke-linecap="round" fill="none" /><path d="M80.34 81.75 L97.06 74.08" stroke="#2c2a1f" stroke-width="6.6" stroke-linecap="round" fill="none" opacity=".25"/><path d="M78.89 82.42 L97.06 74.08" stroke="#454d3d" stroke-width="2" stroke-linecap="round" fill="none" opacity=".5"/><path d="M97.06 74.08 L100.96 68.26" stroke="#454d3d" stroke-width="2.3" stroke-linecap="round" fill="none" /><path d="M97.06 74.08 L102.92 70.24" stroke="#454d3d" stroke-width="2.3" stroke-linecap="round" fill="none" /><path d="M97.06 74.08 L103.95 72.82" stroke="#454d3d" stroke-width="2.3" stroke-linecap="round" fill="none" /><circle cx="97.06" cy="74.08" r="4.4" fill="#6c765f" stroke="#1a1d16" stroke-width="1"/><circle cx="68" cy="64.5" r="11.2" fill="url(#zka)" stroke="#1a1d16" stroke-width="1.2"/><path d="M72.33 66.97 Q71.58 69.94 68.7 70.72 Q65.82 71.5 62.55 72.27 Q59.29 73.03 57.87 69.98 Q56.46 66.93 56.29 63.94 Q56.13 60.95 58.32 59.02 Q60.51 57.08 63.18 56.68 Q65.86 56.27 69.01 56.93 Q72.15 57.58 72.62 60.79 Q73.08 64 72.33 66.97 Z" fill="#2a241e" opacity=".95"/><circle cx="67" cy="58" r="2.4" fill="#454d3d"/><path d="M69.46 65.47 Q69.35 66.78 67.92 67.17 Q66.49 67.56 65.05 66.74 Q63.61 65.93 63.53 64.13 Q63.45 62.33 64.98 61.58 Q66.51 60.83 67.96 61.16 Q69.41 61.49 69.49 62.83 Q69.58 64.17 69.46 65.47 Z" fill="#5a0e0b"/></g></g><g transform="translate(1536 0)"><path d="M60 55.5 L60 54.3" stroke="#272a30" stroke-width="11" stroke-linecap="round" fill="none" /><path d="M60 55.5 L60 54.3" stroke="#3c4048" stroke-width="8.5" stroke-linecap="round" fill="none" /><ellipse cx="63" cy="54.3" rx="7.2" ry="4.6" fill="#231e19" stroke="#110e0c" stroke-width="1"/><path d="M60 72.5 L60 72.5" stroke="#272a30" stroke-width="11" stroke-linecap="round" fill="none" /><path d="M60 72.5 L60 72.5" stroke="#3c4048" stroke-width="8.5" stroke-linecap="round" fill="none" /><ellipse cx="63" cy="72.5" rx="7.2" ry="4.6" fill="#231e19" stroke="#110e0c" stroke-width="1"/><g transform="rotate(0 62 64) translate(1 0)"><path d="M75.55 64 L75.29 68.07 L74.5 71.93 L73.47 75.61 L71.66 78.43 L70.32 81.91 L68.68 85.44 L65.96 86 L63.5 86.82 L61 87.65 L58.46 87.2 L56.24 85.11 L53.64 84.56 L51.84 81.61 L50.1 78.76 L47.84 76.26 L46.75 72.37 L46.24 68.2 L46.24 64 L46.43 59.86 L47.45 56.05 L47.78 51.69 L49.98 49.08 L51.73 46.17 L53.64 43.44 L56.24 42.89 L58.57 41.76 L61 41.31 L63.59 40.32 L65.9 42.26 L68.52 43 L70.9 44.98 L71.82 49.36 L72.85 52.97 L75.05 55.75 L76 59.74 Z" fill="url(#zsa)" stroke="#15130f" stroke-width="1.4"/><path d="M68.63 60.2 Q68.1 61.9 66.43 61.58 Q64.75 61.26 63.1 60.83 Q61.45 60.39 61.48 58.51 Q61.51 56.63 63.07 55.93 Q64.64 55.23 65.81 55.85 Q66.99 56.48 68.07 57.49 Q69.16 58.5 68.63 60.2 Z" fill="#454d3d" opacity=".9"/><path d="M56.09 77.47 Q55.26 78.64 53.93 79.17 Q52.6 79.7 51.2 78.86 Q49.79 78.02 50.4 76.58 Q51.01 75.14 51.77 73.87 Q52.54 72.59 53.75 73.44 Q54.97 74.3 55.95 75.29 Q56.93 76.29 56.09 77.47 Z" fill="#454d3d" opacity=".9"/><path d="M63.5 70.56 Q62.73 72.28 60.91 72.55 Q59.1 72.82 58.08 71.55 Q57.07 70.27 56.24 68.45 Q55.41 66.64 57.23 65.67 Q59.06 64.71 61.14 64.76 Q63.22 64.81 63.75 66.83 Q64.28 68.85 63.5 70.56 Z" fill="#454d3d" opacity=".9"/><ellipse cx="56.61" cy="66.19" rx="5.74" ry="6.37" fill="url(#zba)"/><ellipse cx="53.52" cy="48.74" rx="7.15" ry="5.49" fill="url(#zba)"/><ellipse cx="52.76" cy="58.77" rx="5.89" ry="6.75" fill="url(#zba)"/><ellipse cx="68.76" cy="69.2" rx="6.05" ry="6.68" fill="url(#zba)"/><path d="M60 43.5 L80.52 43.93" stroke="#141410" stroke-width="11.5" stroke-linecap="round" fill="none" /><path d="M60 43.5 L80.52 43.93" stroke="#5e5343" stroke-width="9.2" stroke-linecap="round" fill="none" /><path d="M60 43.5 L80.52 43.93" stroke="#3a3228" stroke-width="3" stroke-linecap="round" fill="none" opacity=".5"/><path d="M80.52 43.93 L98 49.68" stroke="#1a1d16" stroke-width="8.6" stroke-linecap="round" fill="none" /><path d="M80.52 43.93 L98 49.68" stroke="#6c765f" stroke-width="6.6" stroke-linecap="round" fill="none" /><path d="M80.52 43.93 L98 49.68" stroke="#2c2a1f" stroke-width="6.6" stroke-linecap="round" fill="none" opacity=".25"/><path d="M79 43.44 L98 49.68" stroke="#454d3d" stroke-width="2" stroke-linecap="round" fill="none" opacity=".5"/><path d="M98 49.68 L104.81 48.06" stroke="#454d3d" stroke-width="2.3" stroke-linecap="round" fill="none" /><path d="M98 49.68 L104.9 50.84" stroke="#454d3d" stroke-width="2.3" stroke-linecap="round" fill="none" /><path d="M98 49.68 L103.91 53.44" stroke="#454d3d" stroke-width="2.3" stroke-linecap="round" fill="none" /><circle cx="98" cy="49.68" r="4.4" fill="#6c765f" stroke="#1a1d16" stroke-width="1"/><circle cx="97" cy="50.68" r="2" fill="#4a0d0a" opacity=".8"/><path d="M60 84.5 L80.52 83.89" stroke="#141410" stroke-width="11.5" stroke-linecap="round" fill="none" /><path d="M60 84.5 L80.52 83.89" stroke="#5e5343" stroke-width="9.2" stroke-linecap="round" fill="none" /><path d="M60 84.5 L80.52 83.89" stroke="#3a3228" stroke-width="3" stroke-linecap="round" fill="none" opacity=".5"/><path d="M80.52 83.89 L97.95 78.01" stroke="#1a1d16" stroke-width="8.6" stroke-linecap="round" fill="none" /><path d="M80.52 83.89 L97.95 78.01" stroke="#6c765f" stroke-width="6.6" stroke-linecap="round" fill="none" /><path d="M80.52 83.89 L97.95 78.01" stroke="#2c2a1f" stroke-width="6.6" stroke-linecap="round" fill="none" opacity=".25"/><path d="M79 84.41 L97.95 78.01" stroke="#454d3d" stroke-width="2" stroke-linecap="round" fill="none" opacity=".5"/><path d="M97.95 78.01 L102.43 72.63" stroke="#454d3d" stroke-width="2.3" stroke-linecap="round" fill="none" /><path d="M97.95 78.01 L104.17 74.8" stroke="#454d3d" stroke-width="2.3" stroke-linecap="round" fill="none" /><path d="M97.95 78.01 L104.93 77.48" stroke="#454d3d" stroke-width="2.3" stroke-linecap="round" fill="none" /><circle cx="97.95" cy="78.01" r="4.4" fill="#6c765f" stroke="#1a1d16" stroke-width="1"/><circle cx="66" cy="64.5" r="11.2" fill="url(#zka)" stroke="#1a1d16" stroke-width="1.2"/><path d="M70.33 66.97 Q69.58 69.94 66.7 70.72 Q63.82 71.5 60.55 72.27 Q57.29 73.03 55.87 69.98 Q54.46 66.93 54.29 63.94 Q54.13 60.95 56.32 59.02 Q58.51 57.08 61.18 56.68 Q63.86 56.27 67.01 56.93 Q70.15 57.58 70.62 60.79 Q71.08 64 70.33 66.97 Z" fill="#2a241e" opacity=".95"/><circle cx="65" cy="58" r="2.4" fill="#454d3d"/><path d="M67.46 65.47 Q67.35 66.78 65.92 67.17 Q64.49 67.56 63.05 66.74 Q61.61 65.93 61.53 64.13 Q61.45 62.33 62.98 61.58 Q64.51 60.83 65.96 61.16 Q67.41 61.49 67.49 62.83 Q67.58 64.17 67.46 65.47 Z" fill="#5a0e0b"/></g></g></svg>
