<svg xmlns="http://www.w3.org/2000/svg" width="512" height="512" viewBox="0 0 512 512"><defs><filter id="hgrime" x="0" y="0" width="100%" height="100%" color-interpolation-filters="sRGB"><feTurbulence type="fractalNoise" baseFrequency="0.0078125" numOctaves="4" seed="31" stitchTiles="stitch"/><feColorMatrix type="matrix" values="0 0 0 0 0.05  0 0 0 0 0.055  0 0 0 0 0.05  -2.6 0 0 0 1.0"/></filter><filter id="hgrain" x="0" y="0" width="100%" height="100%" color-interpolation-filters="sRGB"><feTurbulence type="fractalNoise" baseFrequency="0.5" numOctaves="2" seed="17" stitchTiles="stitch"/><feColorMatrix type="matrix" values="1 0 0 0 0  1 0 0 0 0  1 0 0 0 0  0 0 0 0 0.08"/></filter></defs><rect width="512" height="512" fill="#5e6d68"/><rect x="1.5" y="1.5" width="61" height="61" fill="#8b9690"/><rect x="3" y="3" width="58" height="4" fill="#fff" opacity=".07"/><rect x="65.5" y="1.5" width="61" height="61" fill="#5f7872"/><rect x="67" y="3" width="58" height="4" fill="#fff" opacity=".07"/><rect x="129.5" y="1.5" width="61" height="61" fill="#8b9690"/><rect x="131" y="3" width="58" height="4" fill="#fff" opacity=".07"/><rect x="193.5" y="1.5" width="61" height="61" fill="#5b746e"/><rect x="195" y="3" width="58" height="4" fill="#fff" opacity=".07"/><rect x="257.5" y="1.5" width="61" height="61" fill="#8b9690"/><rect x="259" y="3" width="58" height="4" fill="#fff" opacity=".07"/><rect x="321.5" y="1.5" width="61" height="61" fill="#5f7872"/><rect x="323" y="3" width="58" height="4" fill="#fff" opacity=".07"/><rect x="385.5" y="1.5" width="61" height="61" fill="#86918b"/><rect x="387" y="3" width="58" height="4" fill="#fff" opacity=".07"/><path d="M392.43 9.19 L409.01 37.22 L439.01 57.56" stroke="#394541" stroke-width="1.2" stroke-linecap="round" stroke-linejoin="round" fill="none" opacity=".7"/><rect x="449.5" y="1.5" width="61" height="61" fill="#5f7872"/><rect x="451" y="3" width="58" height="4" fill="#fff" opacity=".07"/><rect x="1.5" y="65.5" width="61" height="61" fill="#627b75"/><rect x="3" y="67" width="58" height="4" fill="#fff" opacity=".07"/><rect x="65.5" y="65.5" width="61" height="61" fill="#8f9a94"/><rect x="67" y="67" width="58" height="4" fill="#fff" opacity=".07"/><rect x="129.5" y="65.5" width="61" height="61" fill="#627b75"/><rect x="131" y="67" width="58" height="4" fill="#fff" opacity=".07"/><rect x="193.5" y="65.5" width="61" height="61" fill="#8f9a94"/><rect x="195" y="67" width="58" height="4" fill="#fff" opacity=".07"/><rect x="257.5" y="65.5" width="61" height="61" fill="#5b746e"/><rect x="259" y="67" width="58" height="4" fill="#fff" opacity=".07"/><rect x="321.5" y="65.5" width="61" height="61" fill="#86918b"/><rect x="323" y="67" width="58" height="4" fill="#fff" opacity=".07"/><rect x="385.5" y="65.5" width="61" height="61" fill="#5b746e"/><rect x="387" y="67" width="58" height="4" fill="#fff" opacity=".07"/><rect x="449.5" y="65.5" width="61" height="61" fill="#8b9690"/><rect x="451" y="67" width="58" height="4" fill="#fff" opacity=".07"/><rect x="1.5" y="129.5" width="61" height="61" fill="#86918b"/><rect x="3" y="131" width="58" height="4" fill="#fff" opacity=".07"/><rect x="65.5" y="129.5" width="61" height="61" fill="#627b75"/><rect x="67" y="131" width="58" height="4" fill="#fff" opacity=".07"/><rect x="129.5" y="129.5" width="61" height="61" fill="#86918b"/><rect x="131" y="131" width="58" height="4" fill="#fff" opacity=".07"/><rect x="193.5" y="129.5" width="61" height="61" fill="#5f7872"/><rect x="195" y="131" width="58" height="4" fill="#fff" opacity=".07"/><rect x="257.5" y="129.5" width="61" height="61" fill="#8f9a94"/><rect x="259" y="131" width="58" height="4" fill="#fff" opacity=".07"/><rect x="321.5" y="129.5" width="61" height="61" fill="#5b746e"/><rect x="323" y="131" width="58" height="4" fill="#fff" opacity=".07"/><rect x="385.5" y="129.5" width="61" height="61" fill="#86918b"/><rect x="387" y="131" width="58" height="4" fill="#fff" opacity=".07"/><rect x="449.5" y="129.5" width="61" height="61" fill="#5b746e"/><rect x="451" y="131" width="58" height="4" fill="#fff" opacity=".07"/><rect x="1.5" y="193.5" width="61" height="61" fill="#5f7872"/><rect x="3" y="195" width="58" height="4" fill="#fff" opacity=".07"/><path d="M17.37 200.11 L30.6 222.66 L44.98 233.15" stroke="#394541" stroke-width="1.2" stroke-linecap="round" stroke-linejoin="round" fill="none" opacity=".7"/><rect x="65.5" y="193.5" width="61" height="61" fill="#86918b"/><rect x="67" y="195" width="58" height="4" fill="#fff" opacity=".07"/><rect x="129.5" y="193.5" width="61" height="61" fill="#627b75"/><rect x="131" y="195" width="58" height="4" fill="#fff" opacity=".07"/><rect x="193.5" y="193.5" width="61" height="61" fill="#8f9a94"/><rect x="195" y="195" width="58" height="4" fill="#fff" opacity=".07"/><path d="M210 198.5 L219.56 229.47 L245.15 228.32" stroke="#394541" stroke-width="1.2" stroke-linecap="round" stroke-linejoin="round" fill="none" opacity=".7"/><rect x="257.5" y="193.5" width="61" height="61" fill="#5f7872"/><rect x="259" y="195" width="58" height="4" fill="#fff" opacity=".07"/><rect x="321.5" y="193.5" width="61" height="61" fill="#8f9a94"/><rect x="323" y="195" width="58" height="4" fill="#fff" opacity=".07"/><rect x="385.5" y="193.5" width="61" height="61" fill="#5f7872"/><rect x="387" y="195" width="58" height="4" fill="#fff" opacity=".07"/><rect x="449.5" y="193.5" width="61" height="61" fill="#8f9a94"/><rect x="451" y="195" width="58" height="4" fill="#fff" opacity=".07"/><rect x="1.5" y="257.5" width="61" height="61" fill="#86918b"/><rect x="3" y="259" width="58" height="4" fill="#fff" opacity=".07"/><path d="M12.43 265.25 L33.51 283.34 L50.4 292.41" stroke="#394541" stroke-width="1.2" stroke-linecap="round" stroke-linejoin="round" fill="none" opacity=".7"/><rect x="65.5" y="257.5" width="61" height="61" fill="#627b75"/><rect x="67" y="259" width="58" height="4" fill="#fff" opacity=".07"/><rect x="129.5" y="257.5" width="61" height="61" fill="#86918b"/><rect x="131" y="259" width="58" height="4" fill="#fff" opacity=".07"/><rect x="193.5" y="257.5" width="61" height="61" fill="#627b75"/><rect x="195" y="259" width="58" height="4" fill="#fff" opacity=".07"/><rect x="257.5" y="257.5" width="61" height="61" fill="#86918b"/><rect x="259" y="259" width="58" height="4" fill="#fff" opacity=".07"/><rect x="321.5" y="257.5" width="61" height="61" fill="#627b75"/><rect x="323" y="259" width="58" height="4" fill="#fff" opacity=".07"/><rect x="385.5" y="257.5" width="61" height="61" fill="#8f9a94"/><rect x="387" y="259" width="58" height="4" fill="#fff" opacity=".07"/><rect x="449.5" y="257.5" width="61" height="61" fill="#627b75"/><rect x="451" y="259" width="58" height="4" fill="#fff" opacity=".07"/><rect x="1.5" y="321.5" width="61" height="61" fill="#627b75"/><rect x="3" y="323" width="58" height="4" fill="#fff" opacity=".07"/><rect x="65.5" y="321.5" width="61" height="61" fill="#8b9690"/><rect x="67" y="323" width="58" height="4" fill="#fff" opacity=".07"/><rect x="129.5" y="321.5" width="61" height="61" fill="#627b75"/><rect x="131" y="323" width="58" height="4" fill="#fff" opacity=".07"/><rect x="193.5" y="321.5" width="61" height="61" fill="#86918b"/><rect x="195" y="323" width="58" height="4" fill="#fff" opacity=".07"/><rect x="257.5" y="321.5" width="61" height="61" fill="#627b75"/><rect x="259" y="323" width="58" height="4" fill="#fff" opacity=".07"/><rect x="321.5" y="321.5" width="61" height="61" fill="#8f9a94"/><rect x="323" y="323" width="58" height="4" fill="#fff" opacity=".07"/><rect x="385.5" y="321.5" width="61" height="61" fill="#627b75"/><rect x="387" y="323" width="58" height="4" fill="#fff" opacity=".07"/><rect x="449.5" y="321.5" width="61" height="61" fill="#8f9a94"/><rect x="451" y="323" width="58" height="4" fill="#fff" opacity=".07"/><rect x="1.5" y="385.5" width="61" height="61" fill="#8f9a94"/><rect x="3" y="387" width="58" height="4" fill="#fff" opacity=".07"/><rect x="65.5" y="385.5" width="61" height="61" fill="#5f7872"/><rect x="67" y="387" width="58" height="4" fill="#fff" opacity=".07"/><path d="M72.08 395.66 L92.14 419.75 L116.79 433.71" stroke="#394541" stroke-width="1.2" stroke-linecap="round" stroke-linejoin="round" fill="none" opacity=".7"/><rect x="129.5" y="385.5" width="61" height="61" fill="#8f9a94"/><rect x="131" y="387" width="58" height="4" fill="#fff" opacity=".07"/><rect x="193.5" y="385.5" width="61" height="61" fill="#627b75"/><rect x="195" y="387" width="58" height="4" fill="#fff" opacity=".07"/><rect x="257.5" y="385.5" width="61" height="61" fill="#8f9a94"/><rect x="259" y="387" width="58" height="4" fill="#fff" opacity=".07"/><rect x="321.5" y="385.5" width="61" height="61" fill="#5f7872"/><rect x="323" y="387" width="58" height="4" fill="#fff" opacity=".07"/><path d="M339.97 393.14 L357.94 423.24 L361.56 419.29" stroke="#394541" stroke-width="1.2" stroke-linecap="round" stroke-linejoin="round" fill="none" opacity=".7"/><rect x="385.5" y="385.5" width="61" height="61" fill="#8b9690"/><rect x="387" y="387" width="58" height="4" fill="#fff" opacity=".07"/><rect x="449.5" y="385.5" width="61" height="61" fill="#5b746e"/><rect x="451" y="387" width="58" height="4" fill="#fff" opacity=".07"/><rect x="1.5" y="449.5" width="61" height="61" fill="#5f7872"/><rect x="3" y="451" width="58" height="4" fill="#fff" opacity=".07"/><rect x="65.5" y="449.5" width="61" height="61" fill="#8f9a94"/><rect x="67" y="451" width="58" height="4" fill="#fff" opacity=".07"/><rect x="129.5" y="449.5" width="61" height="61" fill="#627b75"/><rect x="131" y="451" width="58" height="4" fill="#fff" opacity=".07"/><rect x="193.5" y="449.5" width="61" height="61" fill="#8b9690"/><rect x="195" y="451" width="58" height="4" fill="#fff" opacity=".07"/><rect x="257.5" y="449.5" width="61" height="61" fill="#627b75"/><rect x="259" y="451" width="58" height="4" fill="#fff" opacity=".07"/><rect x="321.5" y="449.5" width="61" height="61" fill="#86918b"/><rect x="323" y="451" width="58" height="4" fill="#fff" opacity=".07"/><rect x="385.5" y="449.5" width="61" height="61" fill="#627b75"/><rect x="387" y="451" width="58" height="4" fill="#fff" opacity=".07"/><rect x="449.5" y="449.5" width="61" height="61" fill="#86918b"/><rect x="451" y="451" width="58" height="4" fill="#fff" opacity=".07"/><path d="M461.31 462.77 L473.87 476.91 L489.67 493.19" stroke="#394541" stroke-width="1.2" stroke-linecap="round" stroke-linejoin="round" fill="none" opacity=".7"/><ellipse cx="161.1" cy="274.64" rx="38.27" ry="33.28" fill="#3a1d18" opacity="0.28"/><ellipse cx="55.76" cy="244.16" rx="44.14" ry="29.73" fill="#3a1d18" opacity="0.15"/><ellipse cx="462.39" cy="152.05" rx="30.5" ry="24.54" fill="#3a1d18" opacity="0.24"/><ellipse cx="69.15" cy="267.28" rx="49.79" ry="26.38" fill="#3a1d18" opacity="0.3"/><ellipse cx="222.77" cy="228.66" rx="48.2" ry="37" fill="#3a1d18" opacity="0.28"/><ellipse cx="264.69" cy="451.83" rx="20.84" ry="13.48" fill="#3a1d18" opacity="0.15"/><rect width="512" height="512" filter="url(#hgrime)"/><rect width="512" height="512" filter="url(#hgrain)"/></svg>
