<svg xmlns="http://www.w3.org/2000/svg" width="192" height="56" viewBox="0 0 192 56"><defs><filter id="hs" x="-30%" y="-30%" width="160%" height="160%"><feGaussianBlur stdDeviation="3.5"/></filter><linearGradient id="md" x1="0" y1="0" x2="0" y2="1"><stop offset="0" stop-color="#a7aeb0" stop-opacity="1"/><stop offset="1" stop-color="#6f777a" stop-opacity="1"/></linearGradient></defs><rect x="9" y="11" width="184" height="48" rx="3" fill="#000" opacity=".5" filter="url(#hs)"/><rect x="4" y="4" width="184" height="48" rx="3" fill="#4a5154" stroke="#1d2123" stroke-width="2"/><rect x="10" y="10" width="40" height="36" rx="2" fill="url(#md)" stroke="#2b3133" stroke-width="1.5"/><rect x="24" y="22" width="12" height="4" rx="2" fill="#2b3133"/><rect x="14" y="13" width="14" height="6" fill="#e8e2c8" opacity=".8"/><rect x="55" y="10" width="40" height="36" rx="2" fill="url(#md)" stroke="#2b3133" stroke-width="1.5"/><rect x="69" y="22" width="12" height="4" rx="2" fill="#2b3133"/><rect x="59" y="13" width="14" height="6" fill="#e8e2c8" opacity=".8"/><rect x="100" y="10" width="40" height="36" rx="2" fill="url(#md)" stroke="#2b3133" stroke-width="1.5"/><rect x="114" y="22" width="12" height="4" rx="2" fill="#2b3133"/><rect x="104" y="13" width="14" height="6" fill="#e8e2c8" opacity=".8"/><rect x="145" y="10" width="40" height="36" rx="2" fill="url(#md)" stroke="#2b3133" stroke-width="1.5"/><rect x="159" y="22" width="12" height="4" rx="2" fill="#2b3133"/><rect x="149" y="13" width="14" height="6" fill="#e8e2c8" opacity=".8"/><rect x="100" y="44" width="40" height="10" fill="#d9dfdc" stroke="#8a928e" stroke-width="1"/></svg>
