<svg xmlns="http://www.w3.org/2000/svg" width="96" height="48" viewBox="0 0 96 48"><defs><filter id="ps" x="-30%" y="-30%" width="160%" height="160%"><feGaussianBlur stdDeviation="3.5"/></filter></defs><rect x="13" y="17" width="80" height="28" rx="3" fill="#000" opacity=".5" filter="url(#ps)"/><rect x="6" y="18" width="84" height="12" rx="2" fill="#2a2d30"/><rect x="10" y="10" width="76" height="28" rx="3" fill="#1d6b3a" stroke="#0d3a1e" stroke-width="2"/><rect x="14" y="14" width="68" height="20" rx="2" fill="#2a8a4c"/><path d="M22 24 L34 24 L34 20 L42 26 L34 32 L34 28 L22 28 Z" fill="#e8f5e0"/><circle cx="58" cy="19" r="3" fill="#e8f5e0"/><path d="M58 22 L56 29" stroke="#e8f5e0" stroke-width="3" stroke-linecap="round" fill="none" /><path d="M56 29 L62 33" stroke="#e8f5e0" stroke-width="2.5" stroke-linecap="round" fill="none" /><path d="M56 29 L51 32" stroke="#e8f5e0" stroke-width="2.5" stroke-linecap="round" fill="none" /><path d="M57 24 L63 25" stroke="#e8f5e0" stroke-width="2.5" stroke-linecap="round" fill="none" /><rect x="66" y="18" width="12" height="12" fill="none" stroke="#e8f5e0" stroke-width="2"/></svg>
